<?xml version="1.0" encoding="utf-8" standalone="no"?>
<!DOCTYPE svg PUBLIC "-//W3C//DTD SVG 1.1//EN"
  "http://www.w3.org/Graphics/SVG/1.1/DTD/svg11.dtd">
<!-- Created with matplotlib (https://matplotlib.org/) -->
<svg height="324pt" version="1.1" viewBox="0 0 576 324" width="576pt" xmlns="http://www.w3.org/2000/svg" xmlns:xlink="http://www.w3.org/1999/xlink">
 <defs>
  <style type="text/css">
*{stroke-linecap:butt;stroke-linejoin:round;}
  </style>
 </defs>
 <g id="figure_1">
  <g id="patch_1">
   <path d="M 0 324 
L 576 324 
L 576 0 
L 0 0 
z
" style="fill:none;"/>
  </g>
  <g id="axes_1">
   <g id="patch_2">
    <path d="M 41.92 139.52 
L 280.992273 139.52 
L 280.992273 28.32 
L 41.92 28.32 
z
" style="fill:none;"/>
   </g>
   <g id="matplotlib.axis_1">
    <g id="xtick_1">
     <g id="line2d_1">
      <defs>
       <path d="M 0 0 
L 0 3.5 
" id="m2d09a09fca" style="stroke:#000000;stroke-width:0.8;"/>
      </defs>
      <g>
       <use style="stroke:#000000;stroke-width:0.8;" x="52.786921" xlink:href="#m2d09a09fca" y="139.52"/>
      </g>
     </g>
     <g id="text_1">
      <!-- 0 -->
      <defs>
       <path d="M 31.78125 66.40625 
Q 24.171875 66.40625 20.328125 58.90625 
Q 16.5 51.421875 16.5 36.375 
Q 16.5 21.390625 20.328125 13.890625 
Q 24.171875 6.390625 31.78125 6.390625 
Q 39.453125 6.390625 43.28125 13.890625 
Q 47.125 21.390625 47.125 36.375 
Q 47.125 51.421875 43.28125 58.90625 
Q 39.453125 66.40625 31.78125 66.40625 
z
M 31.78125 74.21875 
Q 44.046875 74.21875 50.515625 64.515625 
Q 56.984375 54.828125 56.984375 36.375 
Q 56.984375 17.96875 50.515625 8.265625 
Q 44.046875 -1.421875 31.78125 -1.421875 
Q 19.53125 -1.421875 13.0625 8.265625 
Q 6.59375 17.96875 6.59375 36.375 
Q 6.59375 54.828125 13.0625 64.515625 
Q 19.53125 74.21875 31.78125 74.21875 
z
" id="DejaVuSans-48"/>
      </defs>
      <g transform="translate(49.605671 154.118437)scale(0.1 -0.1)">
       <use xlink:href="#DejaVuSans-48"/>
      </g>
     </g>
    </g>
    <g id="xtick_2">
     <g id="line2d_2">
      <g>
       <use style="stroke:#000000;stroke-width:0.8;" x="96.254607" xlink:href="#m2d09a09fca" y="139.52"/>
      </g>
     </g>
     <g id="text_2">
      <!-- 2 -->
      <defs>
       <path d="M 19.1875 8.296875 
L 53.609375 8.296875 
L 53.609375 0 
L 7.328125 0 
L 7.328125 8.296875 
Q 12.9375 14.109375 22.625 23.890625 
Q 32.328125 33.6875 34.8125 36.53125 
Q 39.546875 41.84375 41.421875 45.53125 
Q 43.3125 49.21875 43.3125 52.78125 
Q 43.3125 58.59375 39.234375 62.25 
Q 35.15625 65.921875 28.609375 65.921875 
Q 23.96875 65.921875 18.8125 64.3125 
Q 13.671875 62.703125 7.8125 59.421875 
L 7.8125 69.390625 
Q 13.765625 71.78125 18.9375 73 
Q 24.125 74.21875 28.421875 74.21875 
Q 39.75 74.21875 46.484375 68.546875 
Q 53.21875 62.890625 53.21875 53.421875 
Q 53.21875 48.921875 51.53125 44.890625 
Q 49.859375 40.875 45.40625 35.40625 
Q 44.1875 33.984375 37.640625 27.21875 
Q 31.109375 20.453125 19.1875 8.296875 
z
" id="DejaVuSans-50"/>
      </defs>
      <g transform="translate(93.073357 154.118437)scale(0.1 -0.1)">
       <use xlink:href="#DejaVuSans-50"/>
      </g>
     </g>
    </g>
    <g id="xtick_3">
     <g id="line2d_3">
      <g>
       <use style="stroke:#000000;stroke-width:0.8;" x="139.722293" xlink:href="#m2d09a09fca" y="139.52"/>
      </g>
     </g>
     <g id="text_3">
      <!-- 4 -->
      <defs>
       <path d="M 37.796875 64.3125 
L 12.890625 25.390625 
L 37.796875 25.390625 
z
M 35.203125 72.90625 
L 47.609375 72.90625 
L 47.609375 25.390625 
L 58.015625 25.390625 
L 58.015625 17.1875 
L 47.609375 17.1875 
L 47.609375 0 
L 37.796875 0 
L 37.796875 17.1875 
L 4.890625 17.1875 
L 4.890625 26.703125 
z
" id="DejaVuSans-52"/>
      </defs>
      <g transform="translate(136.541043 154.118437)scale(0.1 -0.1)">
       <use xlink:href="#DejaVuSans-52"/>
      </g>
     </g>
    </g>
    <g id="xtick_4">
     <g id="line2d_4">
      <g>
       <use style="stroke:#000000;stroke-width:0.8;" x="183.189979" xlink:href="#m2d09a09fca" y="139.52"/>
      </g>
     </g>
     <g id="text_4">
      <!-- 6 -->
      <defs>
       <path d="M 33.015625 40.375 
Q 26.375 40.375 22.484375 35.828125 
Q 18.609375 31.296875 18.609375 23.390625 
Q 18.609375 15.53125 22.484375 10.953125 
Q 26.375 6.390625 33.015625 6.390625 
Q 39.65625 6.390625 43.53125 10.953125 
Q 47.40625 15.53125 47.40625 23.390625 
Q 47.40625 31.296875 43.53125 35.828125 
Q 39.65625 40.375 33.015625 40.375 
z
M 52.59375 71.296875 
L 52.59375 62.3125 
Q 48.875 64.0625 45.09375 64.984375 
Q 41.3125 65.921875 37.59375 65.921875 
Q 27.828125 65.921875 22.671875 59.328125 
Q 17.53125 52.734375 16.796875 39.40625 
Q 19.671875 43.65625 24.015625 45.921875 
Q 28.375 48.1875 33.59375 48.1875 
Q 44.578125 48.1875 50.953125 41.515625 
Q 57.328125 34.859375 57.328125 23.390625 
Q 57.328125 12.15625 50.6875 5.359375 
Q 44.046875 -1.421875 33.015625 -1.421875 
Q 20.359375 -1.421875 13.671875 8.265625 
Q 6.984375 17.96875 6.984375 36.375 
Q 6.984375 53.65625 15.1875 63.9375 
Q 23.390625 74.21875 37.203125 74.21875 
Q 40.921875 74.21875 44.703125 73.484375 
Q 48.484375 72.75 52.59375 71.296875 
z
" id="DejaVuSans-54"/>
      </defs>
      <g transform="translate(180.008729 154.118437)scale(0.1 -0.1)">
       <use xlink:href="#DejaVuSans-54"/>
      </g>
     </g>
    </g>
    <g id="xtick_5">
     <g id="line2d_5">
      <g>
       <use style="stroke:#000000;stroke-width:0.8;" x="226.657665" xlink:href="#m2d09a09fca" y="139.52"/>
      </g>
     </g>
     <g id="text_5">
      <!-- 8 -->
      <defs>
       <path d="M 31.78125 34.625 
Q 24.75 34.625 20.71875 30.859375 
Q 16.703125 27.09375 16.703125 20.515625 
Q 16.703125 13.921875 20.71875 10.15625 
Q 24.75 6.390625 31.78125 6.390625 
Q 38.8125 6.390625 42.859375 10.171875 
Q 46.921875 13.96875 46.921875 20.515625 
Q 46.921875 27.09375 42.890625 30.859375 
Q 38.875 34.625 31.78125 34.625 
z
M 21.921875 38.8125 
Q 15.578125 40.375 12.03125 44.71875 
Q 8.5 49.078125 8.5 55.328125 
Q 8.5 64.0625 14.71875 69.140625 
Q 20.953125 74.21875 31.78125 74.21875 
Q 42.671875 74.21875 48.875 69.140625 
Q 55.078125 64.0625 55.078125 55.328125 
Q 55.078125 49.078125 51.53125 44.71875 
Q 48 40.375 41.703125 38.8125 
Q 48.828125 37.15625 52.796875 32.3125 
Q 56.78125 27.484375 56.78125 20.515625 
Q 56.78125 9.90625 50.3125 4.234375 
Q 43.84375 -1.421875 31.78125 -1.421875 
Q 19.734375 -1.421875 13.25 4.234375 
Q 6.78125 9.90625 6.78125 20.515625 
Q 6.78125 27.484375 10.78125 32.3125 
Q 14.796875 37.15625 21.921875 38.8125 
z
M 18.3125 54.390625 
Q 18.3125 48.734375 21.84375 45.5625 
Q 25.390625 42.390625 31.78125 42.390625 
Q 38.140625 42.390625 41.71875 45.5625 
Q 45.3125 48.734375 45.3125 54.390625 
Q 45.3125 60.0625 41.71875 63.234375 
Q 38.140625 66.40625 31.78125 66.40625 
Q 25.390625 66.40625 21.84375 63.234375 
Q 18.3125 60.0625 18.3125 54.390625 
z
" id="DejaVuSans-56"/>
      </defs>
      <g transform="translate(223.476415 154.118437)scale(0.1 -0.1)">
       <use xlink:href="#DejaVuSans-56"/>
      </g>
     </g>
    </g>
    <g id="xtick_6">
     <g id="line2d_6">
      <g>
       <use style="stroke:#000000;stroke-width:0.8;" x="270.125351" xlink:href="#m2d09a09fca" y="139.52"/>
      </g>
     </g>
     <g id="text_6">
      <!-- 10 -->
      <defs>
       <path d="M 12.40625 8.296875 
L 28.515625 8.296875 
L 28.515625 63.921875 
L 10.984375 60.40625 
L 10.984375 69.390625 
L 28.421875 72.90625 
L 38.28125 72.90625 
L 38.28125 8.296875 
L 54.390625 8.296875 
L 54.390625 0 
L 12.40625 0 
z
" id="DejaVuSans-49"/>
      </defs>
      <g transform="translate(263.762851 154.118437)scale(0.1 -0.1)">
       <use xlink:href="#DejaVuSans-49"/>
       <use x="63.623047" xlink:href="#DejaVuSans-48"/>
      </g>
     </g>
    </g>
   </g>
   <g id="matplotlib.axis_2">
    <g id="ytick_1">
     <g id="line2d_7">
      <defs>
       <path d="M 0 0 
L -3.5 0 
" id="mdfc2961989" style="stroke:#000000;stroke-width:0.8;"/>
      </defs>
      <g>
       <use style="stroke:#000000;stroke-width:0.8;" x="41.92" xlink:href="#mdfc2961989" y="136.161611"/>
      </g>
     </g>
     <g id="text_7">
      <!-- −2.5 -->
      <defs>
       <path d="M 10.59375 35.5 
L 73.1875 35.5 
L 73.1875 27.203125 
L 10.59375 27.203125 
z
" id="DejaVuSans-8722"/>
       <path d="M 10.6875 12.40625 
L 21 12.40625 
L 21 0 
L 10.6875 0 
z
" id="DejaVuSans-46"/>
       <path d="M 10.796875 72.90625 
L 49.515625 72.90625 
L 49.515625 64.59375 
L 19.828125 64.59375 
L 19.828125 46.734375 
Q 21.96875 47.46875 24.109375 47.828125 
Q 26.265625 48.1875 28.421875 48.1875 
Q 40.625 48.1875 47.75 41.5 
Q 54.890625 34.8125 54.890625 23.390625 
Q 54.890625 11.625 47.5625 5.09375 
Q 40.234375 -1.421875 26.90625 -1.421875 
Q 22.3125 -1.421875 17.546875 -0.640625 
Q 12.796875 0.140625 7.71875 1.703125 
L 7.71875 11.625 
Q 12.109375 9.234375 16.796875 8.0625 
Q 21.484375 6.890625 26.703125 6.890625 
Q 35.15625 6.890625 40.078125 11.328125 
Q 45.015625 15.765625 45.015625 23.390625 
Q 45.015625 31 40.078125 35.4375 
Q 35.15625 39.890625 26.703125 39.890625 
Q 22.75 39.890625 18.8125 39.015625 
Q 14.890625 38.140625 10.796875 36.28125 
z
" id="DejaVuSans-53"/>
      </defs>
      <g transform="translate(10.637188 139.96083)scale(0.1 -0.1)">
       <use xlink:href="#DejaVuSans-8722"/>
       <use x="83.789062" xlink:href="#DejaVuSans-50"/>
       <use x="147.412109" xlink:href="#DejaVuSans-46"/>
       <use x="179.199219" xlink:href="#DejaVuSans-53"/>
      </g>
     </g>
    </g>
    <g id="ytick_2">
     <g id="line2d_8">
      <g>
       <use style="stroke:#000000;stroke-width:0.8;" x="41.92" xlink:href="#mdfc2961989" y="111.630635"/>
      </g>
     </g>
     <g id="text_8">
      <!-- 0.0 -->
      <g transform="translate(19.016875 115.429854)scale(0.1 -0.1)">
       <use xlink:href="#DejaVuSans-48"/>
       <use x="63.623047" xlink:href="#DejaVuSans-46"/>
       <use x="95.410156" xlink:href="#DejaVuSans-48"/>
      </g>
     </g>
    </g>
    <g id="ytick_3">
     <g id="line2d_9">
      <g>
       <use style="stroke:#000000;stroke-width:0.8;" x="41.92" xlink:href="#mdfc2961989" y="87.099659"/>
      </g>
     </g>
     <g id="text_9">
      <!-- 2.5 -->
      <g transform="translate(19.016875 90.898878)scale(0.1 -0.1)">
       <use xlink:href="#DejaVuSans-50"/>
       <use x="63.623047" xlink:href="#DejaVuSans-46"/>
       <use x="95.410156" xlink:href="#DejaVuSans-53"/>
      </g>
     </g>
    </g>
    <g id="ytick_4">
     <g id="line2d_10">
      <g>
       <use style="stroke:#000000;stroke-width:0.8;" x="41.92" xlink:href="#mdfc2961989" y="62.568683"/>
      </g>
     </g>
     <g id="text_10">
      <!-- 5.0 -->
      <g transform="translate(19.016875 66.367902)scale(0.1 -0.1)">
       <use xlink:href="#DejaVuSans-53"/>
       <use x="63.623047" xlink:href="#DejaVuSans-46"/>
       <use x="95.410156" xlink:href="#DejaVuSans-48"/>
      </g>
     </g>
    </g>
    <g id="ytick_5">
     <g id="line2d_11">
      <g>
       <use style="stroke:#000000;stroke-width:0.8;" x="41.92" xlink:href="#mdfc2961989" y="38.037707"/>
      </g>
     </g>
     <g id="text_11">
      <!-- 7.5 -->
      <defs>
       <path d="M 8.203125 72.90625 
L 55.078125 72.90625 
L 55.078125 68.703125 
L 28.609375 0 
L 18.3125 0 
L 43.21875 64.59375 
L 8.203125 64.59375 
z
" id="DejaVuSans-55"/>
      </defs>
      <g transform="translate(19.016875 41.836926)scale(0.1 -0.1)">
       <use xlink:href="#DejaVuSans-55"/>
       <use x="63.623047" xlink:href="#DejaVuSans-46"/>
       <use x="95.410156" xlink:href="#DejaVuSans-53"/>
      </g>
     </g>
    </g>
   </g>
   <g id="line2d_12">
    <path clip-path="url(#p50df0b98a6)" d="M 52.786921 33.374545 
L 54.960306 33.374545 
L 57.13369 33.374545 
L 59.307074 33.374545 
L 61.480459 33.374545 
L 63.653843 33.374545 
L 65.827227 33.374545 
L 68.000612 33.374545 
L 70.173996 33.374545 
L 72.34738 33.374545 
L 74.520764 33.374545 
L 76.694149 33.374545 
L 78.867533 33.374545 
L 81.040917 33.374545 
L 83.214302 33.374545 
L 85.387686 33.374545 
L 87.56107 33.374545 
L 89.734455 33.374545 
L 91.907839 33.374545 
L 94.081223 33.374545 
L 96.254607 33.374545 
L 98.427992 33.374545 
L 100.601376 33.374545 
L 102.77476 33.374545 
L 104.948145 33.374545 
L 107.121529 33.374545 
L 109.294913 33.374545 
L 111.468298 33.374545 
L 113.641682 33.374545 
L 115.815066 33.374545 
L 117.98845 33.374545 
L 120.161835 33.374545 
L 122.335219 33.374545 
L 124.508603 33.374545 
L 126.681988 33.374546 
L 128.855372 33.374546 
L 131.028756 33.374546 
L 133.20214 33.374546 
L 135.375525 33.374546 
L 137.548909 33.374546 
L 139.722293 33.374546 
L 141.895678 33.374546 
L 144.069062 33.374546 
L 146.242446 33.374546 
L 148.415831 33.374547 
L 150.589215 33.374547 
L 152.762599 33.374548 
L 154.935983 33.374549 
L 157.109368 33.374551 
L 159.282752 33.374553 
L 161.456136 33.374557 
L 163.629521 33.374563 
L 165.802905 33.374571 
L 167.976289 33.374583 
L 170.149674 33.3746 
L 172.323058 33.374624 
L 174.496442 33.374661 
L 176.669826 33.374714 
L 178.843211 33.37479 
L 181.016595 33.374901 
L 183.189979 33.375063 
L 185.363364 33.375297 
L 187.536748 33.375636 
L 189.710132 33.376126 
L 191.883517 33.376833 
L 194.056901 33.377852 
L 196.230285 33.379321 
L 198.403669 33.381431 
L 200.577054 33.384461 
L 202.750438 33.388801 
L 204.923822 33.395009 
L 207.097207 33.40387 
L 209.270591 33.416491 
L 211.443975 33.434422 
L 213.61736 33.459836 
L 215.790744 33.495753 
L 217.964128 33.546357 
L 220.137512 33.617406 
L 222.310897 33.716773 
L 224.484281 33.855125 
L 226.657665 34.046778 
L 228.83105 34.310695 
L 231.004434 34.671597 
L 233.177818 35.161067 
L 235.351202 35.818389 
L 237.524587 36.690726 
L 239.697971 37.832003 
L 241.871355 39.299687 
L 244.04474 41.148618 
L 246.218124 43.421361 
L 248.391508 46.135497 
L 250.564893 49.269752 
L 252.738277 52.752558 
L 254.911661 56.457348 
L 257.085045 60.207641 
L 259.25843 63.79156 
L 261.431814 66.981902 
L 263.605198 69.557839 
L 265.778583 71.332606 
L 267.951967 72.2153 
L 270.125351 72.381074 
" style="fill:none;stroke:#0072b2;stroke-linecap:square;stroke-width:1.5;"/>
   </g>
   <g id="line2d_13">
    <path clip-path="url(#p50df0b98a6)" d="M 52.786921 134.465455 
L 54.960306 134.465455 
L 57.13369 134.465455 
L 59.307074 134.465455 
L 61.480459 134.465455 
L 63.653843 134.465455 
L 65.827227 134.465455 
L 68.000612 134.465455 
L 70.173996 134.465455 
L 72.34738 134.465455 
L 74.520764 134.465455 
L 76.694149 134.465455 
L 78.867533 134.465455 
L 81.040917 134.465455 
L 83.214302 134.465455 
L 85.387686 134.465455 
L 87.56107 134.465455 
L 89.734455 134.465455 
L 91.907839 134.465455 
L 94.081223 134.465455 
L 96.254607 134.465455 
L 98.427992 134.465455 
L 100.601376 134.465455 
L 102.77476 134.465455 
L 104.948145 134.465455 
L 107.121529 134.465455 
L 109.294913 134.465455 
L 111.468298 134.465455 
L 113.641682 134.465455 
L 115.815066 134.465455 
L 117.98845 134.465455 
L 120.161835 134.465455 
L 122.335219 134.465455 
L 124.508603 134.465455 
L 126.681988 134.465455 
L 128.855372 134.465455 
L 131.028756 134.465455 
L 133.20214 134.465455 
L 135.375525 134.465454 
L 137.548909 134.465454 
L 139.722293 134.465454 
L 141.895678 134.465454 
L 144.069062 134.465454 
L 146.242446 134.465454 
L 148.415831 134.465454 
L 150.589215 134.465454 
L 152.762599 134.465454 
L 154.935983 134.465453 
L 157.109368 134.465453 
L 159.282752 134.465452 
L 161.456136 134.465451 
L 163.629521 134.465449 
L 165.802905 134.465447 
L 167.976289 134.465443 
L 170.149674 134.465438 
L 172.323058 134.46543 
L 174.496442 134.465419 
L 176.669826 134.465402 
L 178.843211 134.465378 
L 181.016595 134.465343 
L 183.189979 134.465291 
L 185.363364 134.465217 
L 187.536748 134.465109 
L 189.710132 134.464952 
L 191.883517 134.464725 
L 194.056901 134.464396 
L 196.230285 134.463921 
L 198.403669 134.463234 
L 200.577054 134.462245 
L 202.750438 134.46082 
L 204.923822 134.458772 
L 207.097207 134.455833 
L 209.270591 134.451624 
L 211.443975 134.445606 
L 213.61736 134.437021 
L 215.790744 134.424802 
L 217.964128 134.407458 
L 220.137512 134.382909 
L 222.310897 134.348273 
L 224.484281 134.299589 
L 226.657665 134.231452 
L 228.83105 134.136564 
L 231.004434 134.005197 
L 233.177818 133.8246 
L 235.351202 133.578399 
L 237.524587 133.246137 
L 239.697971 132.803159 
L 241.871355 132.221153 
L 244.04474 131.469705 
L 246.218124 130.519201 
L 248.391508 129.345106 
L 250.564893 127.933166 
L 252.738277 126.284404 
L 254.911661 124.418422 
L 257.085045 122.373918 
L 259.25843 120.206902 
L 261.431814 117.989797 
L 263.605198 115.81798 
L 265.778583 113.834684 
L 267.951967 112.289145 
L 270.125351 111.630635 
" style="fill:none;stroke:#009e73;stroke-linecap:square;stroke-width:1.5;"/>
   </g>
   <g id="line2d_14">
    <path clip-path="url(#p50df0b98a6)" d="M 52.786921 134.465455 
L 54.960306 134.465455 
L 57.13369 134.465455 
L 59.307074 134.465455 
L 61.480459 134.465455 
L 63.653843 134.465455 
L 65.827227 134.465455 
L 68.000612 134.465455 
L 70.173996 134.465455 
L 72.34738 134.465455 
L 74.520764 134.465455 
L 76.694149 134.465455 
L 78.867533 134.465455 
L 81.040917 134.465455 
L 83.214302 134.465455 
L 85.387686 134.465455 
L 87.56107 134.465455 
L 89.734455 134.465455 
L 91.907839 134.465455 
L 94.081223 134.465455 
L 96.254607 134.465455 
L 98.427992 134.465455 
L 100.601376 134.465455 
L 102.77476 134.465455 
L 104.948145 134.465455 
L 107.121529 134.465455 
L 109.294913 134.465455 
L 111.468298 134.465455 
L 113.641682 134.465455 
L 115.815066 134.465455 
L 117.98845 134.465455 
L 120.161835 134.465455 
L 122.335219 134.465455 
L 124.508603 134.465455 
L 126.681988 134.465455 
L 128.855372 134.465455 
L 131.028756 134.465455 
L 133.20214 134.465455 
L 135.375525 134.465454 
L 137.548909 134.465454 
L 139.722293 134.465454 
L 141.895678 134.465454 
L 144.069062 134.465454 
L 146.242446 134.465454 
L 148.415831 134.465454 
L 150.589215 134.465454 
L 152.762599 134.465454 
L 154.935983 134.465453 
L 157.109368 134.465453 
L 159.282752 134.465452 
L 161.456136 134.465451 
L 163.629521 134.465449 
L 165.802905 134.465447 
L 167.976289 134.465443 
L 170.149674 134.465438 
L 172.323058 134.46543 
L 174.496442 134.465419 
L 176.669826 134.465402 
L 178.843211 134.465378 
L 181.016595 134.465343 
L 183.189979 134.465291 
L 185.363364 134.465217 
L 187.536748 134.465109 
L 189.710132 134.464952 
L 191.883517 134.464725 
L 194.056901 134.464396 
L 196.230285 134.463921 
L 198.403669 134.463234 
L 200.577054 134.462245 
L 202.750438 134.46082 
L 204.923822 134.458772 
L 207.097207 134.455833 
L 209.270591 134.451624 
L 211.443975 134.445606 
L 213.61736 134.437021 
L 215.790744 134.424802 
L 217.964128 134.407458 
L 220.137512 134.382909 
L 222.310897 134.348273 
L 224.484281 134.299589 
L 226.657665 134.231452 
L 228.83105 134.136564 
L 231.004434 134.005197 
L 233.177818 133.8246 
L 235.351202 133.578399 
L 237.524587 133.246137 
L 239.697971 132.803159 
L 241.871355 132.221153 
L 244.04474 131.469705 
L 246.218124 130.519201 
L 248.391508 129.345106 
L 250.564893 127.933166 
L 252.738277 126.284404 
L 254.911661 124.418422 
L 257.085045 122.373918 
L 259.25843 120.206902 
L 261.431814 117.989797 
L 263.605198 115.81798 
L 265.778583 113.834684 
L 267.951967 112.289145 
L 270.125351 111.630635 
" style="fill:none;stroke:#d55e00;stroke-linecap:square;stroke-width:1.5;"/>
   </g>
   <g id="line2d_15">
    <path clip-path="url(#p50df0b98a6)" d="M 52.786921 92.838743 
L 54.960306 92.838743 
L 57.13369 92.838743 
L 59.307074 92.838743 
L 61.480459 92.838743 
L 63.653843 92.838743 
L 65.827227 92.838743 
L 68.000612 92.838743 
L 70.173996 92.838743 
L 72.34738 92.838743 
L 74.520764 92.838743 
L 76.694149 92.838743 
L 78.867533 92.838743 
L 81.040917 92.838743 
L 83.214302 92.838743 
L 85.387686 92.838743 
L 87.56107 92.838743 
L 89.734455 92.838743 
L 91.907839 92.838743 
L 94.081223 92.838743 
L 96.254607 92.838743 
L 98.427992 92.838743 
L 100.601376 92.838743 
L 102.77476 92.838743 
L 104.948145 92.838743 
L 107.121529 92.838743 
L 109.294913 92.838743 
L 111.468298 92.838743 
L 113.641682 92.838743 
L 115.815066 92.838743 
L 117.98845 92.838743 
L 120.161835 92.838743 
L 122.335219 92.838743 
L 124.508603 92.838743 
L 126.681988 92.838743 
L 128.855372 92.838743 
L 131.028756 92.838743 
L 133.20214 92.838743 
L 135.375525 92.838743 
L 137.548909 92.838743 
L 139.722293 92.838743 
L 141.895678 92.838743 
L 144.069062 92.838743 
L 146.242446 92.838743 
L 148.415831 92.838743 
L 150.589215 92.838743 
L 152.762599 92.838743 
L 154.935983 92.838744 
L 157.109368 92.838744 
L 159.282752 92.838744 
L 161.456136 92.838744 
L 163.629521 92.838745 
L 165.802905 92.838746 
L 167.976289 92.838747 
L 170.149674 92.838748 
L 172.323058 92.838751 
L 174.496442 92.838754 
L 176.669826 92.83876 
L 178.843211 92.838767 
L 181.016595 92.838778 
L 183.189979 92.838795 
L 185.363364 92.838818 
L 187.536748 92.838853 
L 189.710132 92.838903 
L 191.883517 92.838976 
L 194.056901 92.839082 
L 196.230285 92.839236 
L 198.403669 92.839459 
L 200.577054 92.839782 
L 202.750438 92.84025 
L 204.923822 92.840926 
L 207.097207 92.8419 
L 209.270591 92.843304 
L 211.443975 92.845324 
L 213.61736 92.848224 
L 215.790744 92.852381 
L 217.964128 92.858325 
L 220.137512 92.866808 
L 222.310897 92.878881 
L 224.484281 92.896012 
L 226.657665 92.920237 
L 228.83105 92.954353 
L 231.004434 93.00217 
L 233.177818 93.068805 
L 235.351202 93.161022 
L 237.524587 93.28758 
L 239.697971 93.459524 
L 241.871355 93.690327 
L 244.04474 93.995751 
L 246.218124 94.393301 
L 248.391508 94.901254 
L 250.564893 95.53742 
L 252.738277 96.318143 
L 254.911661 97.258357 
L 257.085045 98.373691 
L 259.25843 99.685535 
L 261.431814 101.229718 
L 263.605198 103.069046 
L 265.778583 105.308518 
L 267.951967 108.104573 
L 270.125351 111.630635 
" style="fill:none;stroke:#cc79a7;stroke-linecap:square;stroke-width:1.5;"/>
   </g>
   <g id="patch_3">
    <path d="M 41.92 139.52 
L 41.92 28.32 
" style="fill:none;stroke:#000000;stroke-linecap:square;stroke-linejoin:miter;stroke-width:0.8;"/>
   </g>
   <g id="patch_4">
    <path d="M 280.992273 139.52 
L 280.992273 28.32 
" style="fill:none;stroke:#000000;stroke-linecap:square;stroke-linejoin:miter;stroke-width:0.8;"/>
   </g>
   <g id="patch_5">
    <path d="M 41.92 139.52 
L 280.992273 139.52 
" style="fill:none;stroke:#000000;stroke-linecap:square;stroke-linejoin:miter;stroke-width:0.8;"/>
   </g>
   <g id="patch_6">
    <path d="M 41.92 28.32 
L 280.992273 28.32 
" style="fill:none;stroke:#000000;stroke-linecap:square;stroke-linejoin:miter;stroke-width:0.8;"/>
   </g>
   <g id="text_12">
    <!-- Components of the Riccati solution -->
    <defs>
     <path d="M 64.40625 67.28125 
L 64.40625 56.890625 
Q 59.421875 61.53125 53.78125 63.8125 
Q 48.140625 66.109375 41.796875 66.109375 
Q 29.296875 66.109375 22.65625 58.46875 
Q 16.015625 50.828125 16.015625 36.375 
Q 16.015625 21.96875 22.65625 14.328125 
Q 29.296875 6.6875 41.796875 6.6875 
Q 48.140625 6.6875 53.78125 8.984375 
Q 59.421875 11.28125 64.40625 15.921875 
L 64.40625 5.609375 
Q 59.234375 2.09375 53.4375 0.328125 
Q 47.65625 -1.421875 41.21875 -1.421875 
Q 24.65625 -1.421875 15.125 8.703125 
Q 5.609375 18.84375 5.609375 36.375 
Q 5.609375 53.953125 15.125 64.078125 
Q 24.65625 74.21875 41.21875 74.21875 
Q 47.75 74.21875 53.53125 72.484375 
Q 59.328125 70.75 64.40625 67.28125 
z
" id="DejaVuSans-67"/>
     <path d="M 30.609375 48.390625 
Q 23.390625 48.390625 19.1875 42.75 
Q 14.984375 37.109375 14.984375 27.296875 
Q 14.984375 17.484375 19.15625 11.84375 
Q 23.34375 6.203125 30.609375 6.203125 
Q 37.796875 6.203125 41.984375 11.859375 
Q 46.1875 17.53125 46.1875 27.296875 
Q 46.1875 37.015625 41.984375 42.703125 
Q 37.796875 48.390625 30.609375 48.390625 
z
M 30.609375 56 
Q 42.328125 56 49.015625 48.375 
Q 55.71875 40.765625 55.71875 27.296875 
Q 55.71875 13.875 49.015625 6.21875 
Q 42.328125 -1.421875 30.609375 -1.421875 
Q 18.84375 -1.421875 12.171875 6.21875 
Q 5.515625 13.875 5.515625 27.296875 
Q 5.515625 40.765625 12.171875 48.375 
Q 18.84375 56 30.609375 56 
z
" id="DejaVuSans-111"/>
     <path d="M 52 44.1875 
Q 55.375 50.25 60.0625 53.125 
Q 64.75 56 71.09375 56 
Q 79.640625 56 84.28125 50.015625 
Q 88.921875 44.046875 88.921875 33.015625 
L 88.921875 0 
L 79.890625 0 
L 79.890625 32.71875 
Q 79.890625 40.578125 77.09375 44.375 
Q 74.3125 48.1875 68.609375 48.1875 
Q 61.625 48.1875 57.5625 43.546875 
Q 53.515625 38.921875 53.515625 30.90625 
L 53.515625 0 
L 44.484375 0 
L 44.484375 32.71875 
Q 44.484375 40.625 41.703125 44.40625 
Q 38.921875 48.1875 33.109375 48.1875 
Q 26.21875 48.1875 22.15625 43.53125 
Q 18.109375 38.875 18.109375 30.90625 
L 18.109375 0 
L 9.078125 0 
L 9.078125 54.6875 
L 18.109375 54.6875 
L 18.109375 46.1875 
Q 21.1875 51.21875 25.484375 53.609375 
Q 29.78125 56 35.6875 56 
Q 41.65625 56 45.828125 52.96875 
Q 50 49.953125 52 44.1875 
z
" id="DejaVuSans-109"/>
     <path d="M 18.109375 8.203125 
L 18.109375 -20.796875 
L 9.078125 -20.796875 
L 9.078125 54.6875 
L 18.109375 54.6875 
L 18.109375 46.390625 
Q 20.953125 51.265625 25.265625 53.625 
Q 29.59375 56 35.59375 56 
Q 45.5625 56 51.78125 48.09375 
Q 58.015625 40.1875 58.015625 27.296875 
Q 58.015625 14.40625 51.78125 6.484375 
Q 45.5625 -1.421875 35.59375 -1.421875 
Q 29.59375 -1.421875 25.265625 0.953125 
Q 20.953125 3.328125 18.109375 8.203125 
z
M 48.6875 27.296875 
Q 48.6875 37.203125 44.609375 42.84375 
Q 40.53125 48.484375 33.40625 48.484375 
Q 26.265625 48.484375 22.1875 42.84375 
Q 18.109375 37.203125 18.109375 27.296875 
Q 18.109375 17.390625 22.1875 11.75 
Q 26.265625 6.109375 33.40625 6.109375 
Q 40.53125 6.109375 44.609375 11.75 
Q 48.6875 17.390625 48.6875 27.296875 
z
" id="DejaVuSans-112"/>
     <path d="M 54.890625 33.015625 
L 54.890625 0 
L 45.90625 0 
L 45.90625 32.71875 
Q 45.90625 40.484375 42.875 44.328125 
Q 39.84375 48.1875 33.796875 48.1875 
Q 26.515625 48.1875 22.3125 43.546875 
Q 18.109375 38.921875 18.109375 30.90625 
L 18.109375 0 
L 9.078125 0 
L 9.078125 54.6875 
L 18.109375 54.6875 
L 18.109375 46.1875 
Q 21.34375 51.125 25.703125 53.5625 
Q 30.078125 56 35.796875 56 
Q 45.21875 56 50.046875 50.171875 
Q 54.890625 44.34375 54.890625 33.015625 
z
" id="DejaVuSans-110"/>
     <path d="M 56.203125 29.59375 
L 56.203125 25.203125 
L 14.890625 25.203125 
Q 15.484375 15.921875 20.484375 11.0625 
Q 25.484375 6.203125 34.421875 6.203125 
Q 39.59375 6.203125 44.453125 7.46875 
Q 49.3125 8.734375 54.109375 11.28125 
L 54.109375 2.78125 
Q 49.265625 0.734375 44.1875 -0.34375 
Q 39.109375 -1.421875 33.890625 -1.421875 
Q 20.796875 -1.421875 13.15625 6.1875 
Q 5.515625 13.8125 5.515625 26.8125 
Q 5.515625 40.234375 12.765625 48.109375 
Q 20.015625 56 32.328125 56 
Q 43.359375 56 49.78125 48.890625 
Q 56.203125 41.796875 56.203125 29.59375 
z
M 47.21875 32.234375 
Q 47.125 39.59375 43.09375 43.984375 
Q 39.0625 48.390625 32.421875 48.390625 
Q 24.90625 48.390625 20.390625 44.140625 
Q 15.875 39.890625 15.1875 32.171875 
z
" id="DejaVuSans-101"/>
     <path d="M 18.3125 70.21875 
L 18.3125 54.6875 
L 36.8125 54.6875 
L 36.8125 47.703125 
L 18.3125 47.703125 
L 18.3125 18.015625 
Q 18.3125 11.328125 20.140625 9.421875 
Q 21.96875 7.515625 27.59375 7.515625 
L 36.8125 7.515625 
L 36.8125 0 
L 27.59375 0 
Q 17.1875 0 13.234375 3.875 
Q 9.28125 7.765625 9.28125 18.015625 
L 9.28125 47.703125 
L 2.6875 47.703125 
L 2.6875 54.6875 
L 9.28125 54.6875 
L 9.28125 70.21875 
z
" id="DejaVuSans-116"/>
     <path d="M 44.28125 53.078125 
L 44.28125 44.578125 
Q 40.484375 46.53125 36.375 47.5 
Q 32.28125 48.484375 27.875 48.484375 
Q 21.1875 48.484375 17.84375 46.4375 
Q 14.5 44.390625 14.5 40.28125 
Q 14.5 37.15625 16.890625 35.375 
Q 19.28125 33.59375 26.515625 31.984375 
L 29.59375 31.296875 
Q 39.15625 29.25 43.1875 25.515625 
Q 47.21875 21.78125 47.21875 15.09375 
Q 47.21875 7.46875 41.1875 3.015625 
Q 35.15625 -1.421875 24.609375 -1.421875 
Q 20.21875 -1.421875 15.453125 -0.5625 
Q 10.6875 0.296875 5.421875 2 
L 5.421875 11.28125 
Q 10.40625 8.6875 15.234375 7.390625 
Q 20.0625 6.109375 24.8125 6.109375 
Q 31.15625 6.109375 34.5625 8.28125 
Q 37.984375 10.453125 37.984375 14.40625 
Q 37.984375 18.0625 35.515625 20.015625 
Q 33.0625 21.96875 24.703125 23.78125 
L 21.578125 24.515625 
Q 13.234375 26.265625 9.515625 29.90625 
Q 5.8125 33.546875 5.8125 39.890625 
Q 5.8125 47.609375 11.28125 51.796875 
Q 16.75 56 26.8125 56 
Q 31.78125 56 36.171875 55.265625 
Q 40.578125 54.546875 44.28125 53.078125 
z
" id="DejaVuSans-115"/>
     <path id="DejaVuSans-32"/>
     <path d="M 37.109375 75.984375 
L 37.109375 68.5 
L 28.515625 68.5 
Q 23.6875 68.5 21.796875 66.546875 
Q 19.921875 64.59375 19.921875 59.515625 
L 19.921875 54.6875 
L 34.71875 54.6875 
L 34.71875 47.703125 
L 19.921875 47.703125 
L 19.921875 0 
L 10.890625 0 
L 10.890625 47.703125 
L 2.296875 47.703125 
L 2.296875 54.6875 
L 10.890625 54.6875 
L 10.890625 58.5 
Q 10.890625 67.625 15.140625 71.796875 
Q 19.390625 75.984375 28.609375 75.984375 
z
" id="DejaVuSans-102"/>
     <path d="M 54.890625 33.015625 
L 54.890625 0 
L 45.90625 0 
L 45.90625 32.71875 
Q 45.90625 40.484375 42.875 44.328125 
Q 39.84375 48.1875 33.796875 48.1875 
Q 26.515625 48.1875 22.3125 43.546875 
Q 18.109375 38.921875 18.109375 30.90625 
L 18.109375 0 
L 9.078125 0 
L 9.078125 75.984375 
L 18.109375 75.984375 
L 18.109375 46.1875 
Q 21.34375 51.125 25.703125 53.5625 
Q 30.078125 56 35.796875 56 
Q 45.21875 56 50.046875 50.171875 
Q 54.890625 44.34375 54.890625 33.015625 
z
" id="DejaVuSans-104"/>
     <path d="M 44.390625 34.1875 
Q 47.5625 33.109375 50.5625 29.59375 
Q 53.5625 26.078125 56.59375 19.921875 
L 66.609375 0 
L 56 0 
L 46.6875 18.703125 
Q 43.0625 26.03125 39.671875 28.421875 
Q 36.28125 30.8125 30.421875 30.8125 
L 19.671875 30.8125 
L 19.671875 0 
L 9.8125 0 
L 9.8125 72.90625 
L 32.078125 72.90625 
Q 44.578125 72.90625 50.734375 67.671875 
Q 56.890625 62.453125 56.890625 51.90625 
Q 56.890625 45.015625 53.6875 40.46875 
Q 50.484375 35.9375 44.390625 34.1875 
z
M 19.671875 64.796875 
L 19.671875 38.921875 
L 32.078125 38.921875 
Q 39.203125 38.921875 42.84375 42.21875 
Q 46.484375 45.515625 46.484375 51.90625 
Q 46.484375 58.296875 42.84375 61.546875 
Q 39.203125 64.796875 32.078125 64.796875 
z
" id="DejaVuSans-82"/>
     <path d="M 9.421875 54.6875 
L 18.40625 54.6875 
L 18.40625 0 
L 9.421875 0 
z
M 9.421875 75.984375 
L 18.40625 75.984375 
L 18.40625 64.59375 
L 9.421875 64.59375 
z
" id="DejaVuSans-105"/>
     <path d="M 48.78125 52.59375 
L 48.78125 44.1875 
Q 44.96875 46.296875 41.140625 47.34375 
Q 37.3125 48.390625 33.40625 48.390625 
Q 24.65625 48.390625 19.8125 42.84375 
Q 14.984375 37.3125 14.984375 27.296875 
Q 14.984375 17.28125 19.8125 11.734375 
Q 24.65625 6.203125 33.40625 6.203125 
Q 37.3125 6.203125 41.140625 7.25 
Q 44.96875 8.296875 48.78125 10.40625 
L 48.78125 2.09375 
Q 45.015625 0.34375 40.984375 -0.53125 
Q 36.96875 -1.421875 32.421875 -1.421875 
Q 20.0625 -1.421875 12.78125 6.34375 
Q 5.515625 14.109375 5.515625 27.296875 
Q 5.515625 40.671875 12.859375 48.328125 
Q 20.21875 56 33.015625 56 
Q 37.15625 56 41.109375 55.140625 
Q 45.0625 54.296875 48.78125 52.59375 
z
" id="DejaVuSans-99"/>
     <path d="M 34.28125 27.484375 
Q 23.390625 27.484375 19.1875 25 
Q 14.984375 22.515625 14.984375 16.5 
Q 14.984375 11.71875 18.140625 8.90625 
Q 21.296875 6.109375 26.703125 6.109375 
Q 34.1875 6.109375 38.703125 11.40625 
Q 43.21875 16.703125 43.21875 25.484375 
L 43.21875 27.484375 
z
M 52.203125 31.203125 
L 52.203125 0 
L 43.21875 0 
L 43.21875 8.296875 
Q 40.140625 3.328125 35.546875 0.953125 
Q 30.953125 -1.421875 24.3125 -1.421875 
Q 15.921875 -1.421875 10.953125 3.296875 
Q 6 8.015625 6 15.921875 
Q 6 25.140625 12.171875 29.828125 
Q 18.359375 34.515625 30.609375 34.515625 
L 43.21875 34.515625 
L 43.21875 35.40625 
Q 43.21875 41.609375 39.140625 45 
Q 35.0625 48.390625 27.6875 48.390625 
Q 23 48.390625 18.546875 47.265625 
Q 14.109375 46.140625 10.015625 43.890625 
L 10.015625 52.203125 
Q 14.9375 54.109375 19.578125 55.046875 
Q 24.21875 56 28.609375 56 
Q 40.484375 56 46.34375 49.84375 
Q 52.203125 43.703125 52.203125 31.203125 
z
" id="DejaVuSans-97"/>
     <path d="M 9.421875 75.984375 
L 18.40625 75.984375 
L 18.40625 0 
L 9.421875 0 
z
" id="DejaVuSans-108"/>
     <path d="M 8.5 21.578125 
L 8.5 54.6875 
L 17.484375 54.6875 
L 17.484375 21.921875 
Q 17.484375 14.15625 20.5 10.265625 
Q 23.53125 6.390625 29.59375 6.390625 
Q 36.859375 6.390625 41.078125 11.03125 
Q 45.3125 15.671875 45.3125 23.6875 
L 45.3125 54.6875 
L 54.296875 54.6875 
L 54.296875 0 
L 45.3125 0 
L 45.3125 8.40625 
Q 42.046875 3.421875 37.71875 1 
Q 33.40625 -1.421875 27.6875 -1.421875 
Q 18.265625 -1.421875 13.375 4.4375 
Q 8.5 10.296875 8.5 21.578125 
z
M 31.109375 56 
z
" id="DejaVuSans-117"/>
    </defs>
    <g transform="translate(56.349261 22.32)scale(0.12 -0.12)">
     <use xlink:href="#DejaVuSans-67"/>
     <use x="69.824219" xlink:href="#DejaVuSans-111"/>
     <use x="131.005859" xlink:href="#DejaVuSans-109"/>
     <use x="228.417969" xlink:href="#DejaVuSans-112"/>
     <use x="291.894531" xlink:href="#DejaVuSans-111"/>
     <use x="353.076172" xlink:href="#DejaVuSans-110"/>
     <use x="416.455078" xlink:href="#DejaVuSans-101"/>
     <use x="477.978516" xlink:href="#DejaVuSans-110"/>
     <use x="541.357422" xlink:href="#DejaVuSans-116"/>
     <use x="580.566406" xlink:href="#DejaVuSans-115"/>
     <use x="632.666016" xlink:href="#DejaVuSans-32"/>
     <use x="664.453125" xlink:href="#DejaVuSans-111"/>
     <use x="725.634766" xlink:href="#DejaVuSans-102"/>
     <use x="760.839844" xlink:href="#DejaVuSans-32"/>
     <use x="792.626953" xlink:href="#DejaVuSans-116"/>
     <use x="831.835938" xlink:href="#DejaVuSans-104"/>
     <use x="895.214844" xlink:href="#DejaVuSans-101"/>
     <use x="956.738281" xlink:href="#DejaVuSans-32"/>
     <use x="988.525391" xlink:href="#DejaVuSans-82"/>
     <use x="1058.007812" xlink:href="#DejaVuSans-105"/>
     <use x="1085.791016" xlink:href="#DejaVuSans-99"/>
     <use x="1140.771484" xlink:href="#DejaVuSans-99"/>
     <use x="1195.751953" xlink:href="#DejaVuSans-97"/>
     <use x="1257.03125" xlink:href="#DejaVuSans-116"/>
     <use x="1296.240234" xlink:href="#DejaVuSans-105"/>
     <use x="1324.023438" xlink:href="#DejaVuSans-32"/>
     <use x="1355.810547" xlink:href="#DejaVuSans-115"/>
     <use x="1407.910156" xlink:href="#DejaVuSans-111"/>
     <use x="1469.091797" xlink:href="#DejaVuSans-108"/>
     <use x="1496.875" xlink:href="#DejaVuSans-117"/>
     <use x="1560.253906" xlink:href="#DejaVuSans-116"/>
     <use x="1599.462891" xlink:href="#DejaVuSans-105"/>
     <use x="1627.246094" xlink:href="#DejaVuSans-111"/>
     <use x="1688.427734" xlink:href="#DejaVuSans-110"/>
    </g>
   </g>
  </g>
  <g id="axes_2">
   <g id="patch_7">
    <path d="M 326.127727 139.52 
L 565.2 139.52 
L 565.2 28.32 
L 326.127727 28.32 
z
" style="fill:none;"/>
   </g>
   <g id="matplotlib.axis_3">
    <g id="xtick_7">
     <g id="line2d_16">
      <g>
       <use style="stroke:#000000;stroke-width:0.8;" x="336.994649" xlink:href="#m2d09a09fca" y="139.52"/>
      </g>
     </g>
     <g id="text_13">
      <!-- 0 -->
      <g transform="translate(333.813399 154.118437)scale(0.1 -0.1)">
       <use xlink:href="#DejaVuSans-48"/>
      </g>
     </g>
    </g>
    <g id="xtick_8">
     <g id="line2d_17">
      <g>
       <use style="stroke:#000000;stroke-width:0.8;" x="380.462335" xlink:href="#m2d09a09fca" y="139.52"/>
      </g>
     </g>
     <g id="text_14">
      <!-- 2 -->
      <g transform="translate(377.281085 154.118437)scale(0.1 -0.1)">
       <use xlink:href="#DejaVuSans-50"/>
      </g>
     </g>
    </g>
    <g id="xtick_9">
     <g id="line2d_18">
      <g>
       <use style="stroke:#000000;stroke-width:0.8;" x="423.930021" xlink:href="#m2d09a09fca" y="139.52"/>
      </g>
     </g>
     <g id="text_15">
      <!-- 4 -->
      <g transform="translate(420.748771 154.118437)scale(0.1 -0.1)">
       <use xlink:href="#DejaVuSans-52"/>
      </g>
     </g>
    </g>
    <g id="xtick_10">
     <g id="line2d_19">
      <g>
       <use style="stroke:#000000;stroke-width:0.8;" x="467.397707" xlink:href="#m2d09a09fca" y="139.52"/>
      </g>
     </g>
     <g id="text_16">
      <!-- 6 -->
      <g transform="translate(464.216457 154.118437)scale(0.1 -0.1)">
       <use xlink:href="#DejaVuSans-54"/>
      </g>
     </g>
    </g>
    <g id="xtick_11">
     <g id="line2d_20">
      <g>
       <use style="stroke:#000000;stroke-width:0.8;" x="510.865393" xlink:href="#m2d09a09fca" y="139.52"/>
      </g>
     </g>
     <g id="text_17">
      <!-- 8 -->
      <g transform="translate(507.684143 154.118437)scale(0.1 -0.1)">
       <use xlink:href="#DejaVuSans-56"/>
      </g>
     </g>
    </g>
    <g id="xtick_12">
     <g id="line2d_21">
      <g>
       <use style="stroke:#000000;stroke-width:0.8;" x="554.333079" xlink:href="#m2d09a09fca" y="139.52"/>
      </g>
     </g>
     <g id="text_18">
      <!-- 10 -->
      <g transform="translate(547.970579 154.118437)scale(0.1 -0.1)">
       <use xlink:href="#DejaVuSans-49"/>
       <use x="63.623047" xlink:href="#DejaVuSans-48"/>
      </g>
     </g>
    </g>
   </g>
   <g id="matplotlib.axis_4">
    <g id="ytick_6">
     <g id="line2d_22">
      <g>
       <use style="stroke:#000000;stroke-width:0.8;" x="326.127727" xlink:href="#mdfc2961989" y="125.416909"/>
      </g>
     </g>
     <g id="text_19">
      <!-- −0.5 -->
      <g transform="translate(294.844915 129.216127)scale(0.1 -0.1)">
       <use xlink:href="#DejaVuSans-8722"/>
       <use x="83.789062" xlink:href="#DejaVuSans-48"/>
       <use x="147.412109" xlink:href="#DejaVuSans-46"/>
       <use x="179.199219" xlink:href="#DejaVuSans-53"/>
      </g>
     </g>
    </g>
    <g id="ytick_7">
     <g id="line2d_23">
      <g>
       <use style="stroke:#000000;stroke-width:0.8;" x="326.127727" xlink:href="#mdfc2961989" y="94.736121"/>
      </g>
     </g>
     <g id="text_20">
      <!-- 0.0 -->
      <g transform="translate(303.224602 98.53534)scale(0.1 -0.1)">
       <use xlink:href="#DejaVuSans-48"/>
       <use x="63.623047" xlink:href="#DejaVuSans-46"/>
       <use x="95.410156" xlink:href="#DejaVuSans-48"/>
      </g>
     </g>
    </g>
    <g id="ytick_8">
     <g id="line2d_24">
      <g>
       <use style="stroke:#000000;stroke-width:0.8;" x="326.127727" xlink:href="#mdfc2961989" y="64.055333"/>
      </g>
     </g>
     <g id="text_21">
      <!-- 0.5 -->
      <g transform="translate(303.224602 67.854552)scale(0.1 -0.1)">
       <use xlink:href="#DejaVuSans-48"/>
       <use x="63.623047" xlink:href="#DejaVuSans-46"/>
       <use x="95.410156" xlink:href="#DejaVuSans-53"/>
      </g>
     </g>
    </g>
    <g id="ytick_9">
     <g id="line2d_25">
      <g>
       <use style="stroke:#000000;stroke-width:0.8;" x="326.127727" xlink:href="#mdfc2961989" y="33.374545"/>
      </g>
     </g>
     <g id="text_22">
      <!-- 1.0 -->
      <g transform="translate(303.224602 37.173764)scale(0.1 -0.1)">
       <use xlink:href="#DejaVuSans-49"/>
       <use x="63.623047" xlink:href="#DejaVuSans-46"/>
       <use x="95.410156" xlink:href="#DejaVuSans-48"/>
      </g>
     </g>
    </g>
   </g>
   <g id="line2d_26">
    <path clip-path="url(#p7e5e7b0243)" d="M 336.994649 33.374545 
L 339.168033 45.646861 
L 341.341417 56.114817 
L 343.514802 63.69174 
L 345.688186 69.080893 
L 347.86157 73.160437 
L 350.034955 76.56176 
L 352.208339 79.648232 
L 354.381723 82.578075 
L 356.555107 85.372911 
L 358.728492 87.978814 
L 360.901876 90.316623 
L 363.07526 92.317919 
L 365.248645 93.944625 
L 367.422029 95.193768 
L 369.595413 96.092067 
L 371.768798 96.685797 
L 373.942182 97.030312 
L 376.115566 97.181668 
L 378.28895 97.191138 
L 380.462335 97.102374 
L 382.635719 96.95052 
L 384.809103 96.762572 
L 386.982488 96.558383 
L 389.155872 96.351913 
L 391.329256 96.152479 
L 393.50264 95.96588 
L 395.676025 95.795335 
L 397.849409 95.642236 
L 400.022793 95.506733 
L 402.196178 95.38817 
L 404.369562 95.285402 
L 406.542946 95.197025 
L 408.716331 95.121529 
L 410.889715 95.057403 
L 413.063099 95.003205 
L 415.236483 94.957594 
L 417.409868 94.919353 
L 419.583252 94.887399 
L 421.756636 94.860776 
L 423.930021 94.838652 
L 426.103405 94.820308 
L 428.276789 94.805129 
L 430.450174 94.792589 
L 432.623558 94.782242 
L 434.796942 94.773712 
L 436.970326 94.766683 
L 439.143711 94.760887 
L 441.317095 94.756102 
L 443.490479 94.752139 
L 445.663864 94.74884 
L 447.837248 94.746072 
L 450.010632 94.743721 
L 452.184017 94.741689 
L 454.357401 94.739889 
L 456.530785 94.738244 
L 458.704169 94.736681 
L 460.877554 94.735132 
L 463.050938 94.733527 
L 465.224322 94.731792 
L 467.397707 94.729849 
L 469.571091 94.727607 
L 471.744475 94.724965 
L 473.91786 94.721799 
L 476.091244 94.717966 
L 478.264628 94.713288 
L 480.438012 94.707552 
L 482.611397 94.700496 
L 484.784781 94.6918 
L 486.958165 94.681072 
L 489.13155 94.667828 
L 491.304934 94.651476 
L 493.478318 94.631289 
L 495.651702 94.606376 
L 497.825087 94.575645 
L 499.998471 94.537762 
L 502.171855 94.491098 
L 504.34524 94.433676 
L 506.518624 94.3631 
L 508.692008 94.276484 
L 510.865393 94.170373 
L 513.038777 94.040671 
L 515.212161 93.882577 
L 517.385545 93.690545 
L 519.55893 93.458297 
L 521.732314 93.17891 
L 523.905698 92.844983 
L 526.079083 92.44892 
L 528.252467 91.983249 
L 530.425851 91.44086 
L 532.599236 90.814882 
L 534.77262 90.097724 
L 536.946004 89.278673 
L 539.119388 88.339286 
L 541.292773 87.245811 
L 543.466157 85.937838 
L 545.639541 84.312418 
L 547.812926 82.203561 
L 549.98631 79.361594 
L 552.159694 75.456276 
L 554.333079 70.189282 
" style="fill:none;stroke:#0072b2;stroke-linecap:square;stroke-width:1.5;"/>
   </g>
   <g id="line2d_27">
    <path clip-path="url(#p7e5e7b0243)" d="M 336.994649 33.374545 
L 339.168033 64.055333 
L 341.341417 87.40922 
L 343.514802 103.443094 
L 345.688186 114.170427 
L 347.86157 121.437585 
L 350.034955 126.483898 
L 352.208339 130.030465 
L 354.381723 132.448451 
L 356.555107 133.903663 
L 358.728492 134.465455 
L 360.901876 134.181791 
L 363.07526 133.12242 
L 365.248645 131.394136 
L 367.422029 129.135777 
L 369.595413 126.502581 
L 371.768798 123.648476 
L 373.942182 120.71182 
L 376.115566 117.806767 
L 378.28895 115.020064 
L 380.462335 112.411901 
L 382.635719 110.019219 
L 384.809103 107.860082 
L 386.982488 105.938207 
L 389.155872 104.247075 
L 391.329256 102.773387 
L 393.50264 101.49979 
L 395.676025 100.406926 
L 397.849409 99.474904 
L 400.022793 98.6843 
L 402.196178 98.016796 
L 404.369562 97.455551 
L 406.542946 96.985374 
L 408.716331 96.592772 
L 410.889715 96.2659 
L 413.063099 95.994468 
L 415.236483 95.769605 
L 417.409868 95.583721 
L 419.583252 95.430361 
L 421.756636 95.304058 
L 423.930021 95.200209 
L 426.103405 95.11495 
L 428.276789 95.04505 
L 430.450174 94.987815 
L 432.623558 94.941006 
L 434.796942 94.902763 
L 436.970326 94.871551 
L 439.143711 94.8461 
L 441.317095 94.825364 
L 443.490479 94.80848 
L 445.663864 94.794742 
L 447.837248 94.783568 
L 450.010632 94.774482 
L 452.184017 94.767094 
L 454.357401 94.761083 
L 456.530785 94.756188 
L 458.704169 94.752194 
L 460.877554 94.748925 
L 463.050938 94.746237 
L 465.224322 94.74401 
L 467.397707 94.742143 
L 469.571091 94.740554 
L 471.744475 94.739171 
L 473.91786 94.737932 
L 476.091244 94.736781 
L 478.264628 94.735668 
L 480.438012 94.734544 
L 482.611397 94.73336 
L 484.784781 94.732065 
L 486.958165 94.730607 
L 489.13155 94.728924 
L 491.304934 94.726951 
L 493.478318 94.72461 
L 495.651702 94.721814 
L 497.825087 94.718463 
L 499.998471 94.71444 
L 502.171855 94.709616 
L 504.34524 94.70385 
L 506.518624 94.69699 
L 508.692008 94.68889 
L 510.865393 94.67943 
L 513.038777 94.668547 
L 515.212161 94.6563 
L 517.385545 94.642958 
L 519.55893 94.629143 
L 521.732314 94.616017 
L 523.905698 94.605543 
L 526.079083 94.600766 
L 528.252467 94.60607 
L 530.425851 94.627261 
L 532.599236 94.671221 
L 534.77262 94.744801 
L 536.946004 94.852561 
L 539.119388 94.99302 
L 541.292773 95.153222 
L 543.466157 95.3016 
L 545.639541 95.37929 
L 547.812926 95.290856 
L 549.98631 94.899928 
L 552.159694 94.053134 
L 554.333079 92.710408 
" style="fill:none;stroke:#009e73;stroke-linecap:square;stroke-width:1.5;"/>
   </g>
   <g id="patch_8">
    <path d="M 326.127727 139.52 
L 326.127727 28.32 
" style="fill:none;stroke:#000000;stroke-linecap:square;stroke-linejoin:miter;stroke-width:0.8;"/>
   </g>
   <g id="patch_9">
    <path d="M 565.2 139.52 
L 565.2 28.32 
" style="fill:none;stroke:#000000;stroke-linecap:square;stroke-linejoin:miter;stroke-width:0.8;"/>
   </g>
   <g id="patch_10">
    <path d="M 326.127727 139.52 
L 565.2 139.52 
" style="fill:none;stroke:#000000;stroke-linecap:square;stroke-linejoin:miter;stroke-width:0.8;"/>
   </g>
   <g id="patch_11">
    <path d="M 326.127727 28.32 
L 565.2 28.32 
" style="fill:none;stroke:#000000;stroke-linecap:square;stroke-linejoin:miter;stroke-width:0.8;"/>
   </g>
   <g id="text_23">
    <!-- Optimal state $x$ -->
    <defs>
     <path d="M 39.40625 66.21875 
Q 28.65625 66.21875 22.328125 58.203125 
Q 16.015625 50.203125 16.015625 36.375 
Q 16.015625 22.609375 22.328125 14.59375 
Q 28.65625 6.59375 39.40625 6.59375 
Q 50.140625 6.59375 56.421875 14.59375 
Q 62.703125 22.609375 62.703125 36.375 
Q 62.703125 50.203125 56.421875 58.203125 
Q 50.140625 66.21875 39.40625 66.21875 
z
M 39.40625 74.21875 
Q 54.734375 74.21875 63.90625 63.9375 
Q 73.09375 53.65625 73.09375 36.375 
Q 73.09375 19.140625 63.90625 8.859375 
Q 54.734375 -1.421875 39.40625 -1.421875 
Q 24.03125 -1.421875 14.8125 8.828125 
Q 5.609375 19.09375 5.609375 36.375 
Q 5.609375 53.65625 14.8125 63.9375 
Q 24.03125 74.21875 39.40625 74.21875 
z
" id="DejaVuSans-79"/>
     <path d="M 60.015625 54.6875 
L 34.90625 27.875 
L 50.296875 0 
L 39.984375 0 
L 28.421875 21.6875 
L 8.296875 0 
L -2.59375 0 
L 24.3125 28.8125 
L 10.015625 54.6875 
L 20.3125 54.6875 
L 30.8125 34.90625 
L 49.125 54.6875 
z
" id="DejaVuSans-Oblique-120"/>
    </defs>
    <g transform="translate(399.343864 22.32)scale(0.12 -0.12)">
     <use transform="translate(0 0.015625)" xlink:href="#DejaVuSans-79"/>
     <use transform="translate(78.710938 0.015625)" xlink:href="#DejaVuSans-112"/>
     <use transform="translate(142.1875 0.015625)" xlink:href="#DejaVuSans-116"/>
     <use transform="translate(181.396484 0.015625)" xlink:href="#DejaVuSans-105"/>
     <use transform="translate(209.179688 0.015625)" xlink:href="#DejaVuSans-109"/>
     <use transform="translate(306.591797 0.015625)" xlink:href="#DejaVuSans-97"/>
     <use transform="translate(367.871094 0.015625)" xlink:href="#DejaVuSans-108"/>
     <use transform="translate(395.654297 0.015625)" xlink:href="#DejaVuSans-32"/>
     <use transform="translate(427.441406 0.015625)" xlink:href="#DejaVuSans-115"/>
     <use transform="translate(479.541016 0.015625)" xlink:href="#DejaVuSans-116"/>
     <use transform="translate(518.75 0.015625)" xlink:href="#DejaVuSans-97"/>
     <use transform="translate(580.029297 0.015625)" xlink:href="#DejaVuSans-116"/>
     <use transform="translate(619.238281 0.015625)" xlink:href="#DejaVuSans-101"/>
     <use transform="translate(680.761719 0.015625)" xlink:href="#DejaVuSans-32"/>
     <use transform="translate(712.548828 0.015625)" xlink:href="#DejaVuSans-Oblique-120"/>
    </g>
   </g>
  </g>
  <g id="axes_3">
   <g id="patch_12">
    <path d="M 41.92 296.12 
L 280.992273 296.12 
L 280.992273 184.92 
L 41.92 184.92 
z
" style="fill:none;"/>
   </g>
   <g id="matplotlib.axis_5">
    <g id="xtick_13">
     <g id="line2d_28">
      <g>
       <use style="stroke:#000000;stroke-width:0.8;" x="52.786921" xlink:href="#m2d09a09fca" y="296.12"/>
      </g>
     </g>
     <g id="text_24">
      <!-- 0 -->
      <g transform="translate(49.605671 310.718437)scale(0.1 -0.1)">
       <use xlink:href="#DejaVuSans-48"/>
      </g>
     </g>
    </g>
    <g id="xtick_14">
     <g id="line2d_29">
      <g>
       <use style="stroke:#000000;stroke-width:0.8;" x="96.254607" xlink:href="#m2d09a09fca" y="296.12"/>
      </g>
     </g>
     <g id="text_25">
      <!-- 2 -->
      <g transform="translate(93.073357 310.718437)scale(0.1 -0.1)">
       <use xlink:href="#DejaVuSans-50"/>
      </g>
     </g>
    </g>
    <g id="xtick_15">
     <g id="line2d_30">
      <g>
       <use style="stroke:#000000;stroke-width:0.8;" x="139.722293" xlink:href="#m2d09a09fca" y="296.12"/>
      </g>
     </g>
     <g id="text_26">
      <!-- 4 -->
      <g transform="translate(136.541043 310.718437)scale(0.1 -0.1)">
       <use xlink:href="#DejaVuSans-52"/>
      </g>
     </g>
    </g>
    <g id="xtick_16">
     <g id="line2d_31">
      <g>
       <use style="stroke:#000000;stroke-width:0.8;" x="183.189979" xlink:href="#m2d09a09fca" y="296.12"/>
      </g>
     </g>
     <g id="text_27">
      <!-- 6 -->
      <g transform="translate(180.008729 310.718437)scale(0.1 -0.1)">
       <use xlink:href="#DejaVuSans-54"/>
      </g>
     </g>
    </g>
    <g id="xtick_17">
     <g id="line2d_32">
      <g>
       <use style="stroke:#000000;stroke-width:0.8;" x="226.657665" xlink:href="#m2d09a09fca" y="296.12"/>
      </g>
     </g>
     <g id="text_28">
      <!-- 8 -->
      <g transform="translate(223.476415 310.718437)scale(0.1 -0.1)">
       <use xlink:href="#DejaVuSans-56"/>
      </g>
     </g>
    </g>
    <g id="xtick_18">
     <g id="line2d_33">
      <g>
       <use style="stroke:#000000;stroke-width:0.8;" x="270.125351" xlink:href="#m2d09a09fca" y="296.12"/>
      </g>
     </g>
     <g id="text_29">
      <!-- 10 -->
      <g transform="translate(263.762851 310.718437)scale(0.1 -0.1)">
       <use xlink:href="#DejaVuSans-49"/>
       <use x="63.623047" xlink:href="#DejaVuSans-48"/>
      </g>
     </g>
    </g>
   </g>
   <g id="matplotlib.axis_6">
    <g id="ytick_10">
     <g id="line2d_34">
      <g>
       <use style="stroke:#000000;stroke-width:0.8;" x="41.92" xlink:href="#mdfc2961989" y="282.016909"/>
      </g>
     </g>
     <g id="text_30">
      <!-- −1 -->
      <g transform="translate(20.177813 285.816127)scale(0.1 -0.1)">
       <use xlink:href="#DejaVuSans-8722"/>
       <use x="83.789062" xlink:href="#DejaVuSans-49"/>
      </g>
     </g>
    </g>
    <g id="ytick_11">
     <g id="line2d_35">
      <g>
       <use style="stroke:#000000;stroke-width:0.8;" x="41.92" xlink:href="#mdfc2961989" y="251.336121"/>
      </g>
     </g>
     <g id="text_31">
      <!-- 0 -->
      <g transform="translate(28.5575 255.13534)scale(0.1 -0.1)">
       <use xlink:href="#DejaVuSans-48"/>
      </g>
     </g>
    </g>
    <g id="ytick_12">
     <g id="line2d_36">
      <g>
       <use style="stroke:#000000;stroke-width:0.8;" x="41.92" xlink:href="#mdfc2961989" y="220.655333"/>
      </g>
     </g>
     <g id="text_32">
      <!-- 1 -->
      <g transform="translate(28.5575 224.454552)scale(0.1 -0.1)">
       <use xlink:href="#DejaVuSans-49"/>
      </g>
     </g>
    </g>
    <g id="ytick_13">
     <g id="line2d_37">
      <g>
       <use style="stroke:#000000;stroke-width:0.8;" x="41.92" xlink:href="#mdfc2961989" y="189.974545"/>
      </g>
     </g>
     <g id="text_33">
      <!-- 2 -->
      <g transform="translate(28.5575 193.773764)scale(0.1 -0.1)">
       <use xlink:href="#DejaVuSans-50"/>
      </g>
     </g>
    </g>
   </g>
   <g id="line2d_38">
    <path clip-path="url(#p9c8b0c063d)" d="M 52.786921 189.974545 
L 54.960306 202.246861 
L 57.13369 212.714817 
L 59.307074 220.29174 
L 61.480459 225.680893 
L 63.653843 229.760437 
L 65.827227 233.16176 
L 68.000612 236.248232 
L 70.173996 239.178075 
L 72.34738 241.972911 
L 74.520764 244.578814 
L 76.694149 246.916623 
L 78.867533 248.917919 
L 81.040917 250.544625 
L 83.214302 251.793768 
L 85.387686 252.692067 
L 87.56107 253.285797 
L 89.734455 253.630312 
L 91.907839 253.781668 
L 94.081223 253.791138 
L 96.254607 253.702374 
L 98.427992 253.55052 
L 100.601376 253.362572 
L 102.77476 253.158383 
L 104.948145 252.951913 
L 107.121529 252.752479 
L 109.294913 252.56588 
L 111.468298 252.395335 
L 113.641682 252.242236 
L 115.815066 252.106733 
L 117.98845 251.98817 
L 120.161835 251.885402 
L 122.335219 251.797025 
L 124.508603 251.721529 
L 126.681988 251.657403 
L 128.855372 251.603205 
L 131.028756 251.557594 
L 133.20214 251.519353 
L 135.375525 251.487399 
L 137.548909 251.460776 
L 139.722293 251.438652 
L 141.895678 251.420308 
L 144.069062 251.405129 
L 146.242446 251.392589 
L 148.415831 251.382242 
L 150.589215 251.373712 
L 152.762599 251.366683 
L 154.935983 251.360887 
L 157.109368 251.356102 
L 159.282752 251.352139 
L 161.456136 251.34884 
L 163.629521 251.346072 
L 165.802905 251.343721 
L 167.976289 251.341689 
L 170.149674 251.339889 
L 172.323058 251.338244 
L 174.496442 251.336681 
L 176.669826 251.335132 
L 178.843211 251.333527 
L 181.016595 251.331792 
L 183.189979 251.329849 
L 185.363364 251.327607 
L 187.536748 251.324965 
L 189.710132 251.321799 
L 191.883517 251.317966 
L 194.056901 251.313288 
L 196.230285 251.307552 
L 198.403669 251.300496 
L 200.577054 251.2918 
L 202.750438 251.281072 
L 204.923822 251.267828 
L 207.097207 251.251476 
L 209.270591 251.231289 
L 211.443975 251.206376 
L 213.61736 251.175645 
L 215.790744 251.137762 
L 217.964128 251.091098 
L 220.137512 251.033676 
L 222.310897 250.9631 
L 224.484281 250.876484 
L 226.657665 250.770373 
L 228.83105 250.640671 
L 231.004434 250.482577 
L 233.177818 250.290545 
L 235.351202 250.058297 
L 237.524587 249.77891 
L 239.697971 249.444983 
L 241.871355 249.04892 
L 244.04474 248.583249 
L 246.218124 248.04086 
L 248.391508 247.414882 
L 250.564893 246.697724 
L 252.738277 245.878673 
L 254.911661 244.939286 
L 257.085045 243.845811 
L 259.25843 242.537838 
L 261.431814 240.912418 
L 263.605198 238.803561 
L 265.778583 235.961594 
L 267.951967 232.056276 
L 270.125351 226.789282 
" style="fill:none;stroke:#0072b2;stroke-linecap:square;stroke-width:1.5;"/>
   </g>
   <g id="line2d_39">
    <path clip-path="url(#p9c8b0c063d)" d="M 52.786921 189.974545 
L 54.960306 220.655333 
L 57.13369 244.00922 
L 59.307074 260.043094 
L 61.480459 270.770427 
L 63.653843 278.037585 
L 65.827227 283.083898 
L 68.000612 286.630465 
L 70.173996 289.048451 
L 72.34738 290.503663 
L 74.520764 291.065455 
L 76.694149 290.781791 
L 78.867533 289.72242 
L 81.040917 287.994136 
L 83.214302 285.735777 
L 85.387686 283.102581 
L 87.56107 280.248476 
L 89.734455 277.31182 
L 91.907839 274.406767 
L 94.081223 271.620064 
L 96.254607 269.011901 
L 98.427992 266.619219 
L 100.601376 264.460082 
L 102.77476 262.538207 
L 104.948145 260.847075 
L 107.121529 259.373387 
L 109.294913 258.09979 
L 111.468298 257.006926 
L 113.641682 256.074904 
L 115.815066 255.2843 
L 117.98845 254.616796 
L 120.161835 254.055551 
L 122.335219 253.585374 
L 124.508603 253.192772 
L 126.681988 252.8659 
L 128.855372 252.594468 
L 131.028756 252.369605 
L 133.20214 252.183721 
L 135.375525 252.030361 
L 137.548909 251.904058 
L 139.722293 251.800209 
L 141.895678 251.71495 
L 144.069062 251.64505 
L 146.242446 251.587815 
L 148.415831 251.541006 
L 150.589215 251.502763 
L 152.762599 251.471551 
L 154.935983 251.4461 
L 157.109368 251.425364 
L 159.282752 251.40848 
L 161.456136 251.394742 
L 163.629521 251.383568 
L 165.802905 251.374482 
L 167.976289 251.367094 
L 170.149674 251.361083 
L 172.323058 251.356188 
L 174.496442 251.352194 
L 176.669826 251.348925 
L 178.843211 251.346237 
L 181.016595 251.34401 
L 183.189979 251.342143 
L 185.363364 251.340554 
L 187.536748 251.339171 
L 189.710132 251.337932 
L 191.883517 251.336781 
L 194.056901 251.335668 
L 196.230285 251.334544 
L 198.403669 251.33336 
L 200.577054 251.332065 
L 202.750438 251.330607 
L 204.923822 251.328924 
L 207.097207 251.326951 
L 209.270591 251.32461 
L 211.443975 251.321814 
L 213.61736 251.318463 
L 215.790744 251.31444 
L 217.964128 251.309616 
L 220.137512 251.30385 
L 222.310897 251.29699 
L 224.484281 251.28889 
L 226.657665 251.27943 
L 228.83105 251.268547 
L 231.004434 251.2563 
L 233.177818 251.242958 
L 235.351202 251.229143 
L 237.524587 251.216017 
L 239.697971 251.205543 
L 241.871355 251.200766 
L 244.04474 251.20607 
L 246.218124 251.227261 
L 248.391508 251.271221 
L 250.564893 251.344801 
L 252.738277 251.452561 
L 254.911661 251.59302 
L 257.085045 251.753222 
L 259.25843 251.9016 
L 261.431814 251.97929 
L 263.605198 251.890856 
L 265.778583 251.499928 
L 267.951967 250.653134 
L 270.125351 249.310408 
" style="fill:none;stroke:#009e73;stroke-linecap:square;stroke-width:1.5;"/>
   </g>
   <g id="patch_13">
    <path d="M 41.92 296.12 
L 41.92 184.92 
" style="fill:none;stroke:#000000;stroke-linecap:square;stroke-linejoin:miter;stroke-width:0.8;"/>
   </g>
   <g id="patch_14">
    <path d="M 280.992273 296.12 
L 280.992273 184.92 
" style="fill:none;stroke:#000000;stroke-linecap:square;stroke-linejoin:miter;stroke-width:0.8;"/>
   </g>
   <g id="patch_15">
    <path d="M 41.92 296.12 
L 280.992273 296.12 
" style="fill:none;stroke:#000000;stroke-linecap:square;stroke-linejoin:miter;stroke-width:0.8;"/>
   </g>
   <g id="patch_16">
    <path d="M 41.92 184.92 
L 280.992273 184.92 
" style="fill:none;stroke:#000000;stroke-linecap:square;stroke-linejoin:miter;stroke-width:0.8;"/>
   </g>
   <g id="text_34">
    <!-- Output $(Fx, Cx)$ -->
    <defs>
     <path d="M 31 75.875 
Q 24.46875 64.65625 21.28125 53.65625 
Q 18.109375 42.671875 18.109375 31.390625 
Q 18.109375 20.125 21.3125 9.0625 
Q 24.515625 -2 31 -13.1875 
L 23.1875 -13.1875 
Q 15.875 -1.703125 12.234375 9.375 
Q 8.59375 20.453125 8.59375 31.390625 
Q 8.59375 42.28125 12.203125 53.3125 
Q 15.828125 64.359375 23.1875 75.875 
z
" id="DejaVuSans-40"/>
     <path d="M 16.890625 72.90625 
L 58.6875 72.90625 
L 57.078125 64.59375 
L 25.09375 64.59375 
L 20.90625 43.109375 
L 49.8125 43.109375 
L 48.1875 34.8125 
L 19.28125 34.8125 
L 12.5 0 
L 2.6875 0 
z
" id="DejaVuSans-Oblique-70"/>
     <path d="M 11.71875 12.40625 
L 22.015625 12.40625 
L 22.015625 4 
L 14.015625 -11.625 
L 7.71875 -11.625 
L 11.71875 4 
z
" id="DejaVuSans-44"/>
     <path d="M 69.484375 67.28125 
L 67.484375 56.890625 
Q 62.796875 61.625 57.546875 63.921875 
Q 52.296875 66.21875 46.1875 66.21875 
Q 37.84375 66.21875 31.515625 62.203125 
Q 25.203125 58.203125 20.609375 50 
Q 17.671875 44.734375 16.125 38.84375 
Q 14.59375 32.953125 14.59375 27 
Q 14.59375 17.046875 19.75 11.8125 
Q 24.90625 6.59375 34.71875 6.59375 
Q 41.5 6.59375 47.75 8.765625 
Q 54 10.9375 59.90625 15.28125 
L 57.625 3.609375 
Q 51.8125 1.125 45.875 -0.140625 
Q 39.9375 -1.421875 33.984375 -1.421875 
Q 19.96875 -1.421875 12.078125 6.1875 
Q 4.203125 13.8125 4.203125 27.390625 
Q 4.203125 36.078125 7.203125 44.46875 
Q 10.203125 52.875 15.828125 59.8125 
Q 21.78125 67.1875 29.421875 70.703125 
Q 37.0625 74.21875 47.21875 74.21875 
Q 53.46875 74.21875 59.0625 72.484375 
Q 64.65625 70.75 69.484375 67.28125 
z
" id="DejaVuSans-Oblique-67"/>
     <path d="M 8.015625 75.875 
L 15.828125 75.875 
Q 23.140625 64.359375 26.78125 53.3125 
Q 30.421875 42.28125 30.421875 31.390625 
Q 30.421875 20.453125 26.78125 9.375 
Q 23.140625 -1.703125 15.828125 -13.1875 
L 8.015625 -13.1875 
Q 14.5 -2 17.703125 9.0625 
Q 20.90625 20.125 20.90625 31.390625 
Q 20.90625 42.671875 17.703125 53.65625 
Q 14.5 64.65625 8.015625 75.875 
z
" id="DejaVuSans-41"/>
    </defs>
    <g transform="translate(116.156136 178.92)scale(0.12 -0.12)">
     <use transform="translate(0 0.125)" xlink:href="#DejaVuSans-79"/>
     <use transform="translate(78.710938 0.125)" xlink:href="#DejaVuSans-117"/>
     <use transform="translate(142.089844 0.125)" xlink:href="#DejaVuSans-116"/>
     <use transform="translate(181.298828 0.125)" xlink:href="#DejaVuSans-112"/>
     <use transform="translate(244.775391 0.125)" xlink:href="#DejaVuSans-117"/>
     <use transform="translate(308.154297 0.125)" xlink:href="#DejaVuSans-116"/>
     <use transform="translate(347.363281 0.125)" xlink:href="#DejaVuSans-32"/>
     <use transform="translate(379.150391 0.125)" xlink:href="#DejaVuSans-40"/>
     <use transform="translate(418.164062 0.125)" xlink:href="#DejaVuSans-Oblique-70"/>
     <use transform="translate(475.683594 0.125)" xlink:href="#DejaVuSans-Oblique-120"/>
     <use transform="translate(534.863281 0.125)" xlink:href="#DejaVuSans-44"/>
     <use transform="translate(586.132812 0.125)" xlink:href="#DejaVuSans-Oblique-67"/>
     <use transform="translate(655.957031 0.125)" xlink:href="#DejaVuSans-Oblique-120"/>
     <use transform="translate(715.136719 0.125)" xlink:href="#DejaVuSans-41"/>
    </g>
   </g>
  </g>
  <g id="axes_4">
   <g id="patch_17">
    <path d="M 326.127727 296.12 
L 565.2 296.12 
L 565.2 184.92 
L 326.127727 184.92 
z
" style="fill:none;"/>
   </g>
   <g id="matplotlib.axis_7">
    <g id="xtick_19">
     <g id="line2d_40">
      <g>
       <use style="stroke:#000000;stroke-width:0.8;" x="336.994649" xlink:href="#m2d09a09fca" y="296.12"/>
      </g>
     </g>
     <g id="text_35">
      <!-- 0 -->
      <g transform="translate(333.813399 310.718437)scale(0.1 -0.1)">
       <use xlink:href="#DejaVuSans-48"/>
      </g>
     </g>
    </g>
    <g id="xtick_20">
     <g id="line2d_41">
      <g>
       <use style="stroke:#000000;stroke-width:0.8;" x="380.462335" xlink:href="#m2d09a09fca" y="296.12"/>
      </g>
     </g>
     <g id="text_36">
      <!-- 2 -->
      <g transform="translate(377.281085 310.718437)scale(0.1 -0.1)">
       <use xlink:href="#DejaVuSans-50"/>
      </g>
     </g>
    </g>
    <g id="xtick_21">
     <g id="line2d_42">
      <g>
       <use style="stroke:#000000;stroke-width:0.8;" x="423.930021" xlink:href="#m2d09a09fca" y="296.12"/>
      </g>
     </g>
     <g id="text_37">
      <!-- 4 -->
      <g transform="translate(420.748771 310.718437)scale(0.1 -0.1)">
       <use xlink:href="#DejaVuSans-52"/>
      </g>
     </g>
    </g>
    <g id="xtick_22">
     <g id="line2d_43">
      <g>
       <use style="stroke:#000000;stroke-width:0.8;" x="467.397707" xlink:href="#m2d09a09fca" y="296.12"/>
      </g>
     </g>
     <g id="text_38">
      <!-- 6 -->
      <g transform="translate(464.216457 310.718437)scale(0.1 -0.1)">
       <use xlink:href="#DejaVuSans-54"/>
      </g>
     </g>
    </g>
    <g id="xtick_23">
     <g id="line2d_44">
      <g>
       <use style="stroke:#000000;stroke-width:0.8;" x="510.865393" xlink:href="#m2d09a09fca" y="296.12"/>
      </g>
     </g>
     <g id="text_39">
      <!-- 8 -->
      <g transform="translate(507.684143 310.718437)scale(0.1 -0.1)">
       <use xlink:href="#DejaVuSans-56"/>
      </g>
     </g>
    </g>
    <g id="xtick_24">
     <g id="line2d_45">
      <g>
       <use style="stroke:#000000;stroke-width:0.8;" x="554.333079" xlink:href="#m2d09a09fca" y="296.12"/>
      </g>
     </g>
     <g id="text_40">
      <!-- 10 -->
      <g transform="translate(547.970579 310.718437)scale(0.1 -0.1)">
       <use xlink:href="#DejaVuSans-49"/>
       <use x="63.623047" xlink:href="#DejaVuSans-48"/>
      </g>
     </g>
    </g>
   </g>
   <g id="matplotlib.axis_8">
    <g id="ytick_14">
     <g id="line2d_46">
      <g>
       <use style="stroke:#000000;stroke-width:0.8;" x="326.127727" xlink:href="#mdfc2961989" y="291.065455"/>
      </g>
     </g>
     <g id="text_41">
      <!-- −2.0 -->
      <g transform="translate(294.844915 294.864673)scale(0.1 -0.1)">
       <use xlink:href="#DejaVuSans-8722"/>
       <use x="83.789062" xlink:href="#DejaVuSans-50"/>
       <use x="147.412109" xlink:href="#DejaVuSans-46"/>
       <use x="179.199219" xlink:href="#DejaVuSans-48"/>
      </g>
     </g>
    </g>
    <g id="ytick_15">
     <g id="line2d_47">
      <g>
       <use style="stroke:#000000;stroke-width:0.8;" x="326.127727" xlink:href="#mdfc2961989" y="268.01311"/>
      </g>
     </g>
     <g id="text_42">
      <!-- −1.5 -->
      <g transform="translate(294.844915 271.812328)scale(0.1 -0.1)">
       <use xlink:href="#DejaVuSans-8722"/>
       <use x="83.789062" xlink:href="#DejaVuSans-49"/>
       <use x="147.412109" xlink:href="#DejaVuSans-46"/>
       <use x="179.199219" xlink:href="#DejaVuSans-53"/>
      </g>
     </g>
    </g>
    <g id="ytick_16">
     <g id="line2d_48">
      <g>
       <use style="stroke:#000000;stroke-width:0.8;" x="326.127727" xlink:href="#mdfc2961989" y="244.960765"/>
      </g>
     </g>
     <g id="text_43">
      <!-- −1.0 -->
      <g transform="translate(294.844915 248.759983)scale(0.1 -0.1)">
       <use xlink:href="#DejaVuSans-8722"/>
       <use x="83.789062" xlink:href="#DejaVuSans-49"/>
       <use x="147.412109" xlink:href="#DejaVuSans-46"/>
       <use x="179.199219" xlink:href="#DejaVuSans-48"/>
      </g>
     </g>
    </g>
    <g id="ytick_17">
     <g id="line2d_49">
      <g>
       <use style="stroke:#000000;stroke-width:0.8;" x="326.127727" xlink:href="#mdfc2961989" y="221.90842"/>
      </g>
     </g>
     <g id="text_44">
      <!-- −0.5 -->
      <g transform="translate(294.844915 225.707639)scale(0.1 -0.1)">
       <use xlink:href="#DejaVuSans-8722"/>
       <use x="83.789062" xlink:href="#DejaVuSans-48"/>
       <use x="147.412109" xlink:href="#DejaVuSans-46"/>
       <use x="179.199219" xlink:href="#DejaVuSans-53"/>
      </g>
     </g>
    </g>
    <g id="ytick_18">
     <g id="line2d_50">
      <g>
       <use style="stroke:#000000;stroke-width:0.8;" x="326.127727" xlink:href="#mdfc2961989" y="198.856075"/>
      </g>
     </g>
     <g id="text_45">
      <!-- 0.0 -->
      <g transform="translate(303.224602 202.655294)scale(0.1 -0.1)">
       <use xlink:href="#DejaVuSans-48"/>
       <use x="63.623047" xlink:href="#DejaVuSans-46"/>
       <use x="95.410156" xlink:href="#DejaVuSans-48"/>
      </g>
     </g>
    </g>
   </g>
   <g id="line2d_51">
    <path clip-path="url(#p41f75a769a)" d="M 336.994649 198.856075 
L 339.168033 198.856075 
L 341.341417 198.856075 
L 343.514802 198.856075 
L 345.688186 198.856075 
L 347.86157 198.856075 
L 350.034955 198.856075 
L 352.208339 198.856075 
L 354.381723 198.856075 
L 356.555107 198.856075 
L 358.728492 198.856076 
L 360.901876 198.856076 
L 363.07526 198.856076 
L 365.248645 198.856076 
L 367.422029 198.856077 
L 369.595413 198.856077 
L 371.768798 198.856077 
L 373.942182 198.856078 
L 376.115566 198.856079 
L 378.28895 198.85608 
L 380.462335 198.856081 
L 382.635719 198.856083 
L 384.809103 198.856085 
L 386.982488 198.856087 
L 389.155872 198.85609 
L 391.329256 198.856094 
L 393.50264 198.856099 
L 395.676025 198.856104 
L 397.849409 198.856112 
L 400.022793 198.856121 
L 402.196178 198.856132 
L 404.369562 198.856146 
L 406.542946 198.856164 
L 408.716331 198.856186 
L 410.889715 198.856213 
L 413.063099 198.856248 
L 415.236483 198.85629 
L 417.409868 198.856343 
L 419.583252 198.85641 
L 421.756636 198.856492 
L 423.930021 198.856595 
L 426.103405 198.856723 
L 428.276789 198.856882 
L 430.450174 198.857081 
L 432.623558 198.857328 
L 434.796942 198.857636 
L 436.970326 198.858019 
L 439.143711 198.858495 
L 441.317095 198.859088 
L 443.490479 198.859827 
L 445.663864 198.860745 
L 447.837248 198.861887 
L 450.010632 198.863307 
L 452.184017 198.865073 
L 454.357401 198.867268 
L 456.530785 198.869997 
L 458.704169 198.873387 
L 460.877554 198.877599 
L 463.050938 198.88283 
L 465.224322 198.889327 
L 467.397707 198.897392 
L 469.571091 198.907402 
L 471.744475 198.919822 
L 473.91786 198.935229 
L 476.091244 198.954334 
L 478.264628 198.978019 
L 480.438012 199.00737 
L 482.611397 199.043732 
L 484.784781 199.08876 
L 486.958165 199.144497 
L 489.13155 199.21346 
L 491.304934 199.298746 
L 493.478318 199.404159 
L 495.651702 199.534373 
L 497.825087 199.695107 
L 499.998471 199.893357 
L 502.171855 200.137644 
L 504.34524 200.438311 
L 506.518624 200.807848 
L 508.692008 201.261239 
L 510.865393 201.816287 
L 513.038777 202.4939 
L 515.212161 203.318218 
L 517.385545 204.316493 
L 519.55893 205.518531 
L 521.732314 206.955517 
L 523.905698 208.65801 
L 526.079083 210.653076 
L 528.252467 212.960765 
L 530.425851 215.590788 
L 532.599236 218.540977 
L 534.77262 221.800036 
L 536.946004 225.357476 
L 539.119388 229.223393 
L 541.292773 233.459878 
L 543.466157 238.225514 
L 545.639541 243.836117 
L 547.812926 250.847678 
L 549.98631 260.160849 
L 552.159694 273.086614 
L 554.333079 291.065455 
" style="fill:none;stroke:#0072b2;stroke-linecap:square;stroke-width:1.5;"/>
   </g>
   <g id="line2d_52">
    <path clip-path="url(#p41f75a769a)" d="M 336.994649 198.856075 
L 339.168033 198.856075 
L 341.341417 198.856075 
L 343.514802 198.856075 
L 345.688186 198.856075 
L 347.86157 198.856075 
L 350.034955 198.856075 
L 352.208339 198.856075 
L 354.381723 198.856075 
L 356.555107 198.856075 
L 358.728492 198.856075 
L 360.901876 198.856075 
L 363.07526 198.856075 
L 365.248645 198.856074 
L 367.422029 198.856074 
L 369.595413 198.856074 
L 371.768798 198.856074 
L 373.942182 198.856074 
L 376.115566 198.856074 
L 378.28895 198.856073 
L 380.462335 198.856073 
L 382.635719 198.856073 
L 384.809103 198.856072 
L 386.982488 198.856071 
L 389.155872 198.85607 
L 391.329256 198.856069 
L 393.50264 198.856068 
L 395.676025 198.856066 
L 397.849409 198.856064 
L 400.022793 198.856061 
L 402.196178 198.856058 
L 404.369562 198.856054 
L 406.542946 198.856049 
L 408.716331 198.856042 
L 410.889715 198.856034 
L 413.063099 198.856024 
L 415.236483 198.856011 
L 417.409868 198.855995 
L 419.583252 198.855976 
L 421.756636 198.855951 
L 423.930021 198.855921 
L 426.103405 198.855883 
L 428.276789 198.855836 
L 430.450174 198.855777 
L 432.623558 198.855703 
L 434.796942 198.855612 
L 436.970326 198.855498 
L 439.143711 198.855356 
L 441.317095 198.855179 
L 443.490479 198.854958 
L 445.663864 198.854684 
L 447.837248 198.854343 
L 450.010632 198.853918 
L 452.184017 198.85339 
L 454.357401 198.852732 
L 456.530785 198.851914 
L 458.704169 198.850896 
L 460.877554 198.84963 
L 463.050938 198.848056 
L 465.224322 198.8461 
L 467.397707 198.843668 
L 469.571091 198.840646 
L 471.744475 198.836891 
L 473.91786 198.832228 
L 476.091244 198.826437 
L 478.264628 198.819248 
L 480.438012 198.810325 
L 482.611397 198.799253 
L 484.784781 198.78552 
L 486.958165 198.768491 
L 489.13155 198.747383 
L 491.304934 198.72123 
L 493.478318 198.68884 
L 495.651702 198.648746 
L 497.825087 198.599148 
L 499.998471 198.537837 
L 502.171855 198.462114 
L 504.34524 198.368694 
L 506.518624 198.253602 
L 508.692008 198.112061 
L 510.865393 197.938397 
L 513.038777 197.72596 
L 515.212161 197.467122 
L 517.385545 197.153394 
L 519.55893 196.77575 
L 521.732314 196.325282 
L 523.905698 195.79432 
L 526.079083 195.178184 
L 528.252467 194.477647 
L 530.425851 193.702108 
L 532.599236 192.873247 
L 534.77262 192.028712 
L 536.946004 191.225389 
L 539.119388 190.542032 
L 541.292773 190.081683 
L 543.466157 189.974545 
L 545.639541 190.380241 
L 547.812926 191.480421 
L 549.98631 193.428619 
L 552.159694 196.161367 
L 554.333079 198.856075 
" style="fill:none;stroke:#009e73;stroke-linecap:square;stroke-width:1.5;"/>
   </g>
   <g id="patch_18">
    <path d="M 326.127727 296.12 
L 326.127727 184.92 
" style="fill:none;stroke:#000000;stroke-linecap:square;stroke-linejoin:miter;stroke-width:0.8;"/>
   </g>
   <g id="patch_19">
    <path d="M 565.2 296.12 
L 565.2 184.92 
" style="fill:none;stroke:#000000;stroke-linecap:square;stroke-linejoin:miter;stroke-width:0.8;"/>
   </g>
   <g id="patch_20">
    <path d="M 326.127727 296.12 
L 565.2 296.12 
" style="fill:none;stroke:#000000;stroke-linecap:square;stroke-linejoin:miter;stroke-width:0.8;"/>
   </g>
   <g id="patch_21">
    <path d="M 326.127727 184.92 
L 565.2 184.92 
" style="fill:none;stroke:#000000;stroke-linecap:square;stroke-linejoin:miter;stroke-width:0.8;"/>
   </g>
   <g id="text_46">
    <!-- Feedforward control -->
    <defs>
     <path d="M 9.8125 72.90625 
L 51.703125 72.90625 
L 51.703125 64.59375 
L 19.671875 64.59375 
L 19.671875 43.109375 
L 48.578125 43.109375 
L 48.578125 34.8125 
L 19.671875 34.8125 
L 19.671875 0 
L 9.8125 0 
z
" id="DejaVuSans-70"/>
     <path d="M 45.40625 46.390625 
L 45.40625 75.984375 
L 54.390625 75.984375 
L 54.390625 0 
L 45.40625 0 
L 45.40625 8.203125 
Q 42.578125 3.328125 38.25 0.953125 
Q 33.9375 -1.421875 27.875 -1.421875 
Q 17.96875 -1.421875 11.734375 6.484375 
Q 5.515625 14.40625 5.515625 27.296875 
Q 5.515625 40.1875 11.734375 48.09375 
Q 17.96875 56 27.875 56 
Q 33.9375 56 38.25 53.625 
Q 42.578125 51.265625 45.40625 46.390625 
z
M 14.796875 27.296875 
Q 14.796875 17.390625 18.875 11.75 
Q 22.953125 6.109375 30.078125 6.109375 
Q 37.203125 6.109375 41.296875 11.75 
Q 45.40625 17.390625 45.40625 27.296875 
Q 45.40625 37.203125 41.296875 42.84375 
Q 37.203125 48.484375 30.078125 48.484375 
Q 22.953125 48.484375 18.875 42.84375 
Q 14.796875 37.203125 14.796875 27.296875 
z
" id="DejaVuSans-100"/>
     <path d="M 41.109375 46.296875 
Q 39.59375 47.171875 37.8125 47.578125 
Q 36.03125 48 33.890625 48 
Q 26.265625 48 22.1875 43.046875 
Q 18.109375 38.09375 18.109375 28.8125 
L 18.109375 0 
L 9.078125 0 
L 9.078125 54.6875 
L 18.109375 54.6875 
L 18.109375 46.1875 
Q 20.953125 51.171875 25.484375 53.578125 
Q 30.03125 56 36.53125 56 
Q 37.453125 56 38.578125 55.875 
Q 39.703125 55.765625 41.0625 55.515625 
z
" id="DejaVuSans-114"/>
     <path d="M 4.203125 54.6875 
L 13.1875 54.6875 
L 24.421875 12.015625 
L 35.59375 54.6875 
L 46.1875 54.6875 
L 57.421875 12.015625 
L 68.609375 54.6875 
L 77.59375 54.6875 
L 63.28125 0 
L 52.6875 0 
L 40.921875 44.828125 
L 29.109375 0 
L 18.5 0 
z
" id="DejaVuSans-119"/>
    </defs>
    <g transform="translate(385.081676 178.92)scale(0.12 -0.12)">
     <use xlink:href="#DejaVuSans-70"/>
     <use x="57.441406" xlink:href="#DejaVuSans-101"/>
     <use x="118.964844" xlink:href="#DejaVuSans-101"/>
     <use x="180.488281" xlink:href="#DejaVuSans-100"/>
     <use x="243.964844" xlink:href="#DejaVuSans-102"/>
     <use x="279.169922" xlink:href="#DejaVuSans-111"/>
     <use x="340.351562" xlink:href="#DejaVuSans-114"/>
     <use x="381.464844" xlink:href="#DejaVuSans-119"/>
     <use x="463.251953" xlink:href="#DejaVuSans-97"/>
     <use x="524.53125" xlink:href="#DejaVuSans-114"/>
     <use x="565.628906" xlink:href="#DejaVuSans-100"/>
     <use x="629.105469" xlink:href="#DejaVuSans-32"/>
     <use x="660.892578" xlink:href="#DejaVuSans-99"/>
     <use x="715.873047" xlink:href="#DejaVuSans-111"/>
     <use x="777.054688" xlink:href="#DejaVuSans-110"/>
     <use x="840.433594" xlink:href="#DejaVuSans-116"/>
     <use x="879.642578" xlink:href="#DejaVuSans-114"/>
     <use x="920.724609" xlink:href="#DejaVuSans-111"/>
     <use x="981.90625" xlink:href="#DejaVuSans-108"/>
    </g>
   </g>
  </g>
 </g>
 <defs>
  <clipPath id="p50df0b98a6">
   <rect height="111.2" width="239.072273" x="41.92" y="28.32"/>
  </clipPath>
  <clipPath id="p7e5e7b0243">
   <rect height="111.2" width="239.072273" x="326.127727" y="28.32"/>
  </clipPath>
  <clipPath id="p9c8b0c063d">
   <rect height="111.2" width="239.072273" x="41.92" y="184.92"/>
  </clipPath>
  <clipPath id="p41f75a769a">
   <rect height="111.2" width="239.072273" x="326.127727" y="184.92"/>
  </clipPath>
 </defs>
</svg>
