<?xml version="1.0" encoding="utf-8" standalone="no"?>
<!DOCTYPE svg PUBLIC "-//W3C//DTD SVG 1.1//EN"
  "http://www.w3.org/Graphics/SVG/1.1/DTD/svg11.dtd">
<!-- Created with matplotlib (https://matplotlib.org/) -->
<svg height="324pt" version="1.1" viewBox="0 0 576 324" width="576pt" xmlns="http://www.w3.org/2000/svg" xmlns:xlink="http://www.w3.org/1999/xlink">
 <defs>
  <style type="text/css">
*{stroke-linecap:butt;stroke-linejoin:round;}
  </style>
 </defs>
 <g id="figure_1">
  <g id="patch_1">
   <path d="M 0 324 
L 576 324 
L 576 0 
L 0 0 
z
" style="fill:none;"/>
  </g>
  <g id="axes_1">
   <g id="patch_2">
    <path d="M 33.64 139.52 
L 278.415 139.52 
L 278.415 28.32 
L 33.64 28.32 
z
" style="fill:none;"/>
   </g>
   <g id="matplotlib.axis_1">
    <g id="xtick_1">
     <g id="line2d_1">
      <defs>
       <path d="M 0 0 
L 0 3.5 
" id="meca4e8e5c9" style="stroke:#000000;stroke-width:0.8;"/>
      </defs>
      <g>
       <use style="stroke:#000000;stroke-width:0.8;" x="44.766136" xlink:href="#meca4e8e5c9" y="139.52"/>
      </g>
     </g>
     <g id="text_1">
      <!-- 0 -->
      <defs>
       <path d="M 31.78125 66.40625 
Q 24.171875 66.40625 20.328125 58.90625 
Q 16.5 51.421875 16.5 36.375 
Q 16.5 21.390625 20.328125 13.890625 
Q 24.171875 6.390625 31.78125 6.390625 
Q 39.453125 6.390625 43.28125 13.890625 
Q 47.125 21.390625 47.125 36.375 
Q 47.125 51.421875 43.28125 58.90625 
Q 39.453125 66.40625 31.78125 66.40625 
z
M 31.78125 74.21875 
Q 44.046875 74.21875 50.515625 64.515625 
Q 56.984375 54.828125 56.984375 36.375 
Q 56.984375 17.96875 50.515625 8.265625 
Q 44.046875 -1.421875 31.78125 -1.421875 
Q 19.53125 -1.421875 13.0625 8.265625 
Q 6.59375 17.96875 6.59375 36.375 
Q 6.59375 54.828125 13.0625 64.515625 
Q 19.53125 74.21875 31.78125 74.21875 
z
" id="DejaVuSans-48"/>
      </defs>
      <g transform="translate(41.584886 154.118437)scale(0.1 -0.1)">
       <use xlink:href="#DejaVuSans-48"/>
      </g>
     </g>
    </g>
    <g id="xtick_2">
     <g id="line2d_2">
      <g>
       <use style="stroke:#000000;stroke-width:0.8;" x="89.270682" xlink:href="#meca4e8e5c9" y="139.52"/>
      </g>
     </g>
     <g id="text_2">
      <!-- 2 -->
      <defs>
       <path d="M 19.1875 8.296875 
L 53.609375 8.296875 
L 53.609375 0 
L 7.328125 0 
L 7.328125 8.296875 
Q 12.9375 14.109375 22.625 23.890625 
Q 32.328125 33.6875 34.8125 36.53125 
Q 39.546875 41.84375 41.421875 45.53125 
Q 43.3125 49.21875 43.3125 52.78125 
Q 43.3125 58.59375 39.234375 62.25 
Q 35.15625 65.921875 28.609375 65.921875 
Q 23.96875 65.921875 18.8125 64.3125 
Q 13.671875 62.703125 7.8125 59.421875 
L 7.8125 69.390625 
Q 13.765625 71.78125 18.9375 73 
Q 24.125 74.21875 28.421875 74.21875 
Q 39.75 74.21875 46.484375 68.546875 
Q 53.21875 62.890625 53.21875 53.421875 
Q 53.21875 48.921875 51.53125 44.890625 
Q 49.859375 40.875 45.40625 35.40625 
Q 44.1875 33.984375 37.640625 27.21875 
Q 31.109375 20.453125 19.1875 8.296875 
z
" id="DejaVuSans-50"/>
      </defs>
      <g transform="translate(86.089432 154.118437)scale(0.1 -0.1)">
       <use xlink:href="#DejaVuSans-50"/>
      </g>
     </g>
    </g>
    <g id="xtick_3">
     <g id="line2d_3">
      <g>
       <use style="stroke:#000000;stroke-width:0.8;" x="133.775227" xlink:href="#meca4e8e5c9" y="139.52"/>
      </g>
     </g>
     <g id="text_3">
      <!-- 4 -->
      <defs>
       <path d="M 37.796875 64.3125 
L 12.890625 25.390625 
L 37.796875 25.390625 
z
M 35.203125 72.90625 
L 47.609375 72.90625 
L 47.609375 25.390625 
L 58.015625 25.390625 
L 58.015625 17.1875 
L 47.609375 17.1875 
L 47.609375 0 
L 37.796875 0 
L 37.796875 17.1875 
L 4.890625 17.1875 
L 4.890625 26.703125 
z
" id="DejaVuSans-52"/>
      </defs>
      <g transform="translate(130.593977 154.118437)scale(0.1 -0.1)">
       <use xlink:href="#DejaVuSans-52"/>
      </g>
     </g>
    </g>
    <g id="xtick_4">
     <g id="line2d_4">
      <g>
       <use style="stroke:#000000;stroke-width:0.8;" x="178.279773" xlink:href="#meca4e8e5c9" y="139.52"/>
      </g>
     </g>
     <g id="text_4">
      <!-- 6 -->
      <defs>
       <path d="M 33.015625 40.375 
Q 26.375 40.375 22.484375 35.828125 
Q 18.609375 31.296875 18.609375 23.390625 
Q 18.609375 15.53125 22.484375 10.953125 
Q 26.375 6.390625 33.015625 6.390625 
Q 39.65625 6.390625 43.53125 10.953125 
Q 47.40625 15.53125 47.40625 23.390625 
Q 47.40625 31.296875 43.53125 35.828125 
Q 39.65625 40.375 33.015625 40.375 
z
M 52.59375 71.296875 
L 52.59375 62.3125 
Q 48.875 64.0625 45.09375 64.984375 
Q 41.3125 65.921875 37.59375 65.921875 
Q 27.828125 65.921875 22.671875 59.328125 
Q 17.53125 52.734375 16.796875 39.40625 
Q 19.671875 43.65625 24.015625 45.921875 
Q 28.375 48.1875 33.59375 48.1875 
Q 44.578125 48.1875 50.953125 41.515625 
Q 57.328125 34.859375 57.328125 23.390625 
Q 57.328125 12.15625 50.6875 5.359375 
Q 44.046875 -1.421875 33.015625 -1.421875 
Q 20.359375 -1.421875 13.671875 8.265625 
Q 6.984375 17.96875 6.984375 36.375 
Q 6.984375 53.65625 15.1875 63.9375 
Q 23.390625 74.21875 37.203125 74.21875 
Q 40.921875 74.21875 44.703125 73.484375 
Q 48.484375 72.75 52.59375 71.296875 
z
" id="DejaVuSans-54"/>
      </defs>
      <g transform="translate(175.098523 154.118437)scale(0.1 -0.1)">
       <use xlink:href="#DejaVuSans-54"/>
      </g>
     </g>
    </g>
    <g id="xtick_5">
     <g id="line2d_5">
      <g>
       <use style="stroke:#000000;stroke-width:0.8;" x="222.784318" xlink:href="#meca4e8e5c9" y="139.52"/>
      </g>
     </g>
     <g id="text_5">
      <!-- 8 -->
      <defs>
       <path d="M 31.78125 34.625 
Q 24.75 34.625 20.71875 30.859375 
Q 16.703125 27.09375 16.703125 20.515625 
Q 16.703125 13.921875 20.71875 10.15625 
Q 24.75 6.390625 31.78125 6.390625 
Q 38.8125 6.390625 42.859375 10.171875 
Q 46.921875 13.96875 46.921875 20.515625 
Q 46.921875 27.09375 42.890625 30.859375 
Q 38.875 34.625 31.78125 34.625 
z
M 21.921875 38.8125 
Q 15.578125 40.375 12.03125 44.71875 
Q 8.5 49.078125 8.5 55.328125 
Q 8.5 64.0625 14.71875 69.140625 
Q 20.953125 74.21875 31.78125 74.21875 
Q 42.671875 74.21875 48.875 69.140625 
Q 55.078125 64.0625 55.078125 55.328125 
Q 55.078125 49.078125 51.53125 44.71875 
Q 48 40.375 41.703125 38.8125 
Q 48.828125 37.15625 52.796875 32.3125 
Q 56.78125 27.484375 56.78125 20.515625 
Q 56.78125 9.90625 50.3125 4.234375 
Q 43.84375 -1.421875 31.78125 -1.421875 
Q 19.734375 -1.421875 13.25 4.234375 
Q 6.78125 9.90625 6.78125 20.515625 
Q 6.78125 27.484375 10.78125 32.3125 
Q 14.796875 37.15625 21.921875 38.8125 
z
M 18.3125 54.390625 
Q 18.3125 48.734375 21.84375 45.5625 
Q 25.390625 42.390625 31.78125 42.390625 
Q 38.140625 42.390625 41.71875 45.5625 
Q 45.3125 48.734375 45.3125 54.390625 
Q 45.3125 60.0625 41.71875 63.234375 
Q 38.140625 66.40625 31.78125 66.40625 
Q 25.390625 66.40625 21.84375 63.234375 
Q 18.3125 60.0625 18.3125 54.390625 
z
" id="DejaVuSans-56"/>
      </defs>
      <g transform="translate(219.603068 154.118437)scale(0.1 -0.1)">
       <use xlink:href="#DejaVuSans-56"/>
      </g>
     </g>
    </g>
    <g id="xtick_6">
     <g id="line2d_6">
      <g>
       <use style="stroke:#000000;stroke-width:0.8;" x="267.288864" xlink:href="#meca4e8e5c9" y="139.52"/>
      </g>
     </g>
     <g id="text_6">
      <!-- 10 -->
      <defs>
       <path d="M 12.40625 8.296875 
L 28.515625 8.296875 
L 28.515625 63.921875 
L 10.984375 60.40625 
L 10.984375 69.390625 
L 28.421875 72.90625 
L 38.28125 72.90625 
L 38.28125 8.296875 
L 54.390625 8.296875 
L 54.390625 0 
L 12.40625 0 
z
" id="DejaVuSans-49"/>
      </defs>
      <g transform="translate(260.926364 154.118437)scale(0.1 -0.1)">
       <use xlink:href="#DejaVuSans-49"/>
       <use x="63.623047" xlink:href="#DejaVuSans-48"/>
      </g>
     </g>
    </g>
   </g>
   <g id="matplotlib.axis_2">
    <g id="ytick_1">
     <g id="line2d_7">
      <defs>
       <path d="M 0 0 
L -3.5 0 
" id="m9cc193a9e2" style="stroke:#000000;stroke-width:0.8;"/>
      </defs>
      <g>
       <use style="stroke:#000000;stroke-width:0.8;" x="33.64" xlink:href="#m9cc193a9e2" y="134.465455"/>
      </g>
     </g>
     <g id="text_7">
      <!-- 0 -->
      <g transform="translate(20.2775 138.264673)scale(0.1 -0.1)">
       <use xlink:href="#DejaVuSans-48"/>
      </g>
     </g>
    </g>
    <g id="ytick_2">
     <g id="line2d_8">
      <g>
       <use style="stroke:#000000;stroke-width:0.8;" x="33.64" xlink:href="#m9cc193a9e2" y="109.192727"/>
      </g>
     </g>
     <g id="text_8">
      <!-- 1 -->
      <g transform="translate(20.2775 112.991946)scale(0.1 -0.1)">
       <use xlink:href="#DejaVuSans-49"/>
      </g>
     </g>
    </g>
    <g id="ytick_3">
     <g id="line2d_9">
      <g>
       <use style="stroke:#000000;stroke-width:0.8;" x="33.64" xlink:href="#m9cc193a9e2" y="83.92"/>
      </g>
     </g>
     <g id="text_9">
      <!-- 2 -->
      <g transform="translate(20.2775 87.719219)scale(0.1 -0.1)">
       <use xlink:href="#DejaVuSans-50"/>
      </g>
     </g>
    </g>
    <g id="ytick_4">
     <g id="line2d_10">
      <g>
       <use style="stroke:#000000;stroke-width:0.8;" x="33.64" xlink:href="#m9cc193a9e2" y="58.647273"/>
      </g>
     </g>
     <g id="text_10">
      <!-- 3 -->
      <defs>
       <path d="M 40.578125 39.3125 
Q 47.65625 37.796875 51.625 33 
Q 55.609375 28.21875 55.609375 21.1875 
Q 55.609375 10.40625 48.1875 4.484375 
Q 40.765625 -1.421875 27.09375 -1.421875 
Q 22.515625 -1.421875 17.65625 -0.515625 
Q 12.796875 0.390625 7.625 2.203125 
L 7.625 11.71875 
Q 11.71875 9.328125 16.59375 8.109375 
Q 21.484375 6.890625 26.8125 6.890625 
Q 36.078125 6.890625 40.9375 10.546875 
Q 45.796875 14.203125 45.796875 21.1875 
Q 45.796875 27.640625 41.28125 31.265625 
Q 36.765625 34.90625 28.71875 34.90625 
L 20.21875 34.90625 
L 20.21875 43.015625 
L 29.109375 43.015625 
Q 36.375 43.015625 40.234375 45.921875 
Q 44.09375 48.828125 44.09375 54.296875 
Q 44.09375 59.90625 40.109375 62.90625 
Q 36.140625 65.921875 28.71875 65.921875 
Q 24.65625 65.921875 20.015625 65.03125 
Q 15.375 64.15625 9.8125 62.3125 
L 9.8125 71.09375 
Q 15.4375 72.65625 20.34375 73.4375 
Q 25.25 74.21875 29.59375 74.21875 
Q 40.828125 74.21875 47.359375 69.109375 
Q 53.90625 64.015625 53.90625 55.328125 
Q 53.90625 49.265625 50.4375 45.09375 
Q 46.96875 40.921875 40.578125 39.3125 
z
" id="DejaVuSans-51"/>
      </defs>
      <g transform="translate(20.2775 62.446491)scale(0.1 -0.1)">
       <use xlink:href="#DejaVuSans-51"/>
      </g>
     </g>
    </g>
    <g id="ytick_5">
     <g id="line2d_11">
      <g>
       <use style="stroke:#000000;stroke-width:0.8;" x="33.64" xlink:href="#m9cc193a9e2" y="33.374545"/>
      </g>
     </g>
     <g id="text_11">
      <!-- 4 -->
      <g transform="translate(20.2775 37.173764)scale(0.1 -0.1)">
       <use xlink:href="#DejaVuSans-52"/>
      </g>
     </g>
    </g>
   </g>
   <g id="line2d_12">
    <path clip-path="url(#pe9f643d7d6)" d="M 44.766136 134.465455 
L 46.991364 134.465455 
L 49.216591 134.465455 
L 51.441818 134.465455 
L 53.667045 134.465455 
L 55.892273 134.465455 
L 58.1175 134.465455 
L 60.342727 134.465455 
L 62.567955 134.465455 
L 64.793182 134.465455 
L 67.018409 134.465455 
L 69.243636 134.465455 
L 71.468864 134.465455 
L 73.694091 134.465455 
L 75.919318 134.465455 
L 78.144545 134.465455 
L 80.369773 134.465455 
L 82.595 134.465455 
L 84.820227 134.465455 
L 87.045455 134.465455 
L 89.270682 134.465455 
L 91.495909 134.465455 
L 93.721136 134.465455 
L 95.946364 134.465455 
L 98.171591 134.465455 
L 100.396818 134.465455 
L 102.622045 134.465455 
L 104.847273 134.465455 
L 107.0725 134.465455 
L 109.297727 134.465455 
L 111.522955 134.465455 
L 113.748182 134.465455 
L 115.973409 134.465455 
L 118.198636 134.465455 
L 120.423864 134.465455 
L 122.649091 134.465455 
L 124.874318 134.465455 
L 127.099545 134.465455 
L 129.324773 134.465455 
L 131.55 134.465455 
L 133.775227 134.465455 
L 136.000455 134.465455 
L 138.225682 134.465455 
L 140.450909 134.465455 
L 142.676136 134.465455 
L 144.901364 134.465455 
L 147.126591 134.465455 
L 149.351818 134.465455 
L 151.577045 134.465455 
L 153.802273 134.465455 
L 156.0275 134.465455 
L 158.252727 134.465455 
L 160.477955 134.465455 
L 162.703182 134.465455 
L 164.928409 134.465455 
L 167.153636 134.465455 
L 169.378864 134.465455 
L 171.604091 134.465455 
L 173.829318 134.465455 
L 176.054545 134.465455 
L 178.279773 134.465455 
L 180.505 134.465455 
L 182.730227 134.465455 
L 184.955455 134.465455 
L 187.180682 134.465455 
L 189.405909 134.465455 
L 191.631136 134.465455 
L 193.856364 134.465455 
L 196.081591 134.465455 
L 198.306818 134.465455 
L 200.532045 134.465455 
L 202.757273 134.465455 
L 204.9825 134.465455 
L 207.207727 134.465455 
L 209.432955 134.465455 
L 211.658182 134.465455 
L 213.883409 134.465455 
L 216.108636 134.465455 
L 218.333864 134.465455 
L 220.559091 134.465455 
L 222.784318 134.465455 
L 225.009545 134.465455 
L 227.234773 134.465455 
L 229.46 134.465455 
L 231.685227 134.465455 
L 233.910455 134.465455 
L 236.135682 134.465455 
L 238.360909 134.465455 
L 240.586136 134.465455 
L 242.811364 134.465455 
L 245.036591 134.465455 
L 247.261818 134.465455 
L 249.487045 134.465455 
L 251.712273 134.465455 
L 253.9375 134.465455 
L 256.162727 134.465455 
L 258.387955 134.465455 
L 260.613182 134.465455 
L 262.838409 134.465455 
L 265.063636 134.465455 
L 267.288864 134.465455 
" style="fill:none;stroke:#0072b2;stroke-linecap:square;stroke-width:1.5;"/>
   </g>
   <g id="line2d_13">
    <path clip-path="url(#pe9f643d7d6)" d="M 44.766136 134.465455 
L 46.991364 134.465455 
L 49.216591 134.465455 
L 51.441818 134.465455 
L 53.667045 134.465455 
L 55.892273 134.465455 
L 58.1175 134.465455 
L 60.342727 134.465455 
L 62.567955 134.465455 
L 64.793182 134.465455 
L 67.018409 134.465455 
L 69.243636 134.465455 
L 71.468864 134.465455 
L 73.694091 134.465455 
L 75.919318 134.465455 
L 78.144545 134.465455 
L 80.369773 134.465455 
L 82.595 134.465455 
L 84.820227 134.465455 
L 87.045455 134.465455 
L 89.270682 134.465455 
L 91.495909 134.465455 
L 93.721136 134.465455 
L 95.946364 134.465455 
L 98.171591 134.465455 
L 100.396818 134.465455 
L 102.622045 134.465455 
L 104.847273 134.465455 
L 107.0725 134.465455 
L 109.297727 134.465455 
L 111.522955 134.465455 
L 113.748182 134.465455 
L 115.973409 134.465455 
L 118.198636 134.465455 
L 120.423864 134.465455 
L 122.649091 134.465455 
L 124.874318 134.465455 
L 127.099545 134.465455 
L 129.324773 134.465455 
L 131.55 134.465455 
L 133.775227 134.465455 
L 136.000455 134.465455 
L 138.225682 134.465455 
L 140.450909 134.465455 
L 142.676136 134.465455 
L 144.901364 134.465455 
L 147.126591 134.465455 
L 149.351818 134.465455 
L 151.577045 134.465455 
L 153.802273 134.465455 
L 156.0275 134.465455 
L 158.252727 134.465455 
L 160.477955 134.465455 
L 162.703182 134.465455 
L 164.928409 134.465455 
L 167.153636 134.465455 
L 169.378864 134.465455 
L 171.604091 134.465455 
L 173.829318 134.465455 
L 176.054545 134.465455 
L 178.279773 134.465455 
L 180.505 134.465455 
L 182.730227 134.465455 
L 184.955455 134.465455 
L 187.180682 134.465455 
L 189.405909 134.465455 
L 191.631136 134.465455 
L 193.856364 134.465455 
L 196.081591 134.465455 
L 198.306818 134.465455 
L 200.532045 134.465455 
L 202.757273 134.465455 
L 204.9825 134.465455 
L 207.207727 134.465455 
L 209.432955 134.465455 
L 211.658182 134.465455 
L 213.883409 134.465455 
L 216.108636 134.465455 
L 218.333864 134.465455 
L 220.559091 134.465455 
L 222.784318 134.465455 
L 225.009545 134.465455 
L 227.234773 134.465455 
L 229.46 134.465455 
L 231.685227 134.465455 
L 233.910455 134.465455 
L 236.135682 134.465455 
L 238.360909 134.465455 
L 240.586136 134.465455 
L 242.811364 134.465455 
L 245.036591 134.465455 
L 247.261818 134.465455 
L 249.487045 134.465455 
L 251.712273 134.465455 
L 253.9375 134.465455 
L 256.162727 134.465455 
L 258.387955 134.465455 
L 260.613182 134.465455 
L 262.838409 134.465455 
L 265.063636 134.465455 
L 267.288864 134.465455 
" style="fill:none;stroke:#009e73;stroke-linecap:square;stroke-width:1.5;"/>
   </g>
   <g id="line2d_14">
    <path clip-path="url(#pe9f643d7d6)" d="M 44.766136 134.465455 
L 46.991364 134.465455 
L 49.216591 134.465455 
L 51.441818 134.465455 
L 53.667045 134.465455 
L 55.892273 134.465455 
L 58.1175 134.465455 
L 60.342727 134.465455 
L 62.567955 134.465455 
L 64.793182 134.465455 
L 67.018409 134.465455 
L 69.243636 134.465455 
L 71.468864 134.465455 
L 73.694091 134.465455 
L 75.919318 134.465455 
L 78.144545 134.465455 
L 80.369773 134.465455 
L 82.595 134.465455 
L 84.820227 134.465455 
L 87.045455 134.465455 
L 89.270682 134.465455 
L 91.495909 134.465455 
L 93.721136 134.465455 
L 95.946364 134.465455 
L 98.171591 134.465455 
L 100.396818 134.465455 
L 102.622045 134.465455 
L 104.847273 134.465455 
L 107.0725 134.465455 
L 109.297727 134.465455 
L 111.522955 134.465455 
L 113.748182 134.465455 
L 115.973409 134.465455 
L 118.198636 134.465455 
L 120.423864 134.465455 
L 122.649091 134.465455 
L 124.874318 134.465455 
L 127.099545 134.465455 
L 129.324773 134.465455 
L 131.55 134.465455 
L 133.775227 134.465455 
L 136.000455 134.465455 
L 138.225682 134.465455 
L 140.450909 134.465455 
L 142.676136 134.465455 
L 144.901364 134.465455 
L 147.126591 134.465455 
L 149.351818 134.465455 
L 151.577045 134.465455 
L 153.802273 134.465455 
L 156.0275 134.465455 
L 158.252727 134.465455 
L 160.477955 134.465455 
L 162.703182 134.465455 
L 164.928409 134.465455 
L 167.153636 134.465455 
L 169.378864 134.465455 
L 171.604091 134.465455 
L 173.829318 134.465455 
L 176.054545 134.465455 
L 178.279773 134.465455 
L 180.505 134.465455 
L 182.730227 134.465455 
L 184.955455 134.465455 
L 187.180682 134.465455 
L 189.405909 134.465455 
L 191.631136 134.465455 
L 193.856364 134.465455 
L 196.081591 134.465455 
L 198.306818 134.465455 
L 200.532045 134.465455 
L 202.757273 134.465455 
L 204.9825 134.465455 
L 207.207727 134.465455 
L 209.432955 134.465455 
L 211.658182 134.465455 
L 213.883409 134.465455 
L 216.108636 134.465455 
L 218.333864 134.465455 
L 220.559091 134.465455 
L 222.784318 134.465455 
L 225.009545 134.465455 
L 227.234773 134.465455 
L 229.46 134.465455 
L 231.685227 134.465455 
L 233.910455 134.465455 
L 236.135682 134.465455 
L 238.360909 134.465455 
L 240.586136 134.465455 
L 242.811364 134.465455 
L 245.036591 134.465455 
L 247.261818 134.465455 
L 249.487045 134.465455 
L 251.712273 134.465455 
L 253.9375 134.465455 
L 256.162727 134.465455 
L 258.387955 134.465455 
L 260.613182 134.465455 
L 262.838409 134.465455 
L 265.063636 134.465455 
L 267.288864 134.465455 
" style="fill:none;stroke:#d55e00;stroke-linecap:square;stroke-width:1.5;"/>
   </g>
   <g id="line2d_15">
    <path clip-path="url(#pe9f643d7d6)" d="M 44.766136 103.226646 
L 46.991364 103.226646 
L 49.216591 103.226646 
L 51.441818 103.226646 
L 53.667045 103.226646 
L 55.892273 103.226646 
L 58.1175 103.226646 
L 60.342727 103.226646 
L 62.567955 103.226646 
L 64.793182 103.226646 
L 67.018409 103.226646 
L 69.243636 103.226646 
L 71.468864 103.226646 
L 73.694091 103.226646 
L 75.919318 103.226646 
L 78.144545 103.226646 
L 80.369773 103.226646 
L 82.595 103.226646 
L 84.820227 103.226646 
L 87.045455 103.226646 
L 89.270682 103.226646 
L 91.495909 103.226646 
L 93.721136 103.226646 
L 95.946364 103.226646 
L 98.171591 103.226646 
L 100.396818 103.226646 
L 102.622045 103.226646 
L 104.847273 103.226646 
L 107.0725 103.226646 
L 109.297727 103.226646 
L 111.522955 103.226646 
L 113.748182 103.226646 
L 115.973409 103.226646 
L 118.198636 103.226646 
L 120.423864 103.226646 
L 122.649091 103.226646 
L 124.874318 103.226646 
L 127.099545 103.226646 
L 129.324773 103.226646 
L 131.55 103.226646 
L 133.775227 103.226646 
L 136.000455 103.226646 
L 138.225682 103.226646 
L 140.450909 103.226646 
L 142.676136 103.226646 
L 144.901364 103.226646 
L 147.126591 103.226646 
L 149.351818 103.226646 
L 151.577045 103.226646 
L 153.802273 103.226646 
L 156.0275 103.226646 
L 158.252727 103.226646 
L 160.477955 103.226646 
L 162.703182 103.226646 
L 164.928409 103.226646 
L 167.153636 103.226646 
L 169.378864 103.226646 
L 171.604091 103.226645 
L 173.829318 103.226645 
L 176.054545 103.226645 
L 178.279773 103.226645 
L 180.505 103.226645 
L 182.730227 103.226644 
L 184.955455 103.226643 
L 187.180682 103.226641 
L 189.405909 103.226639 
L 191.631136 103.226635 
L 193.856364 103.226629 
L 196.081591 103.226619 
L 198.306818 103.226605 
L 200.532045 103.226581 
L 202.757273 103.226545 
L 204.9825 103.226488 
L 207.207727 103.2264 
L 209.432955 103.226261 
L 211.658182 103.226044 
L 213.883409 103.225704 
L 216.108636 103.225173 
L 218.333864 103.224343 
L 220.559091 103.223044 
L 222.784318 103.221012 
L 225.009545 103.217835 
L 227.234773 103.212866 
L 229.46 103.205093 
L 231.685227 103.192935 
L 233.910455 103.173916 
L 236.135682 103.144157 
L 238.360909 103.097584 
L 240.586136 103.02467 
L 242.811364 102.910448 
L 245.036591 102.731347 
L 247.261818 102.450105 
L 249.487045 102.007453 
L 251.712273 101.308221 
L 253.9375 100.197331 
L 256.162727 98.416243 
L 258.387955 95.51841 
L 260.613182 90.689151 
L 262.838409 82.310157 
L 265.063636 66.702433 
L 267.288864 33.374545 
" style="fill:none;stroke:#cc79a7;stroke-linecap:square;stroke-width:1.5;"/>
   </g>
   <g id="patch_3">
    <path d="M 33.64 139.52 
L 33.64 28.32 
" style="fill:none;stroke:#000000;stroke-linecap:square;stroke-linejoin:miter;stroke-width:0.8;"/>
   </g>
   <g id="patch_4">
    <path d="M 278.415 139.52 
L 278.415 28.32 
" style="fill:none;stroke:#000000;stroke-linecap:square;stroke-linejoin:miter;stroke-width:0.8;"/>
   </g>
   <g id="patch_5">
    <path d="M 33.64 139.52 
L 278.415 139.52 
" style="fill:none;stroke:#000000;stroke-linecap:square;stroke-linejoin:miter;stroke-width:0.8;"/>
   </g>
   <g id="patch_6">
    <path d="M 33.64 28.32 
L 278.415 28.32 
" style="fill:none;stroke:#000000;stroke-linecap:square;stroke-linejoin:miter;stroke-width:0.8;"/>
   </g>
   <g id="text_12">
    <!-- Components of the Riccati solution -->
    <defs>
     <path d="M 64.40625 67.28125 
L 64.40625 56.890625 
Q 59.421875 61.53125 53.78125 63.8125 
Q 48.140625 66.109375 41.796875 66.109375 
Q 29.296875 66.109375 22.65625 58.46875 
Q 16.015625 50.828125 16.015625 36.375 
Q 16.015625 21.96875 22.65625 14.328125 
Q 29.296875 6.6875 41.796875 6.6875 
Q 48.140625 6.6875 53.78125 8.984375 
Q 59.421875 11.28125 64.40625 15.921875 
L 64.40625 5.609375 
Q 59.234375 2.09375 53.4375 0.328125 
Q 47.65625 -1.421875 41.21875 -1.421875 
Q 24.65625 -1.421875 15.125 8.703125 
Q 5.609375 18.84375 5.609375 36.375 
Q 5.609375 53.953125 15.125 64.078125 
Q 24.65625 74.21875 41.21875 74.21875 
Q 47.75 74.21875 53.53125 72.484375 
Q 59.328125 70.75 64.40625 67.28125 
z
" id="DejaVuSans-67"/>
     <path d="M 30.609375 48.390625 
Q 23.390625 48.390625 19.1875 42.75 
Q 14.984375 37.109375 14.984375 27.296875 
Q 14.984375 17.484375 19.15625 11.84375 
Q 23.34375 6.203125 30.609375 6.203125 
Q 37.796875 6.203125 41.984375 11.859375 
Q 46.1875 17.53125 46.1875 27.296875 
Q 46.1875 37.015625 41.984375 42.703125 
Q 37.796875 48.390625 30.609375 48.390625 
z
M 30.609375 56 
Q 42.328125 56 49.015625 48.375 
Q 55.71875 40.765625 55.71875 27.296875 
Q 55.71875 13.875 49.015625 6.21875 
Q 42.328125 -1.421875 30.609375 -1.421875 
Q 18.84375 -1.421875 12.171875 6.21875 
Q 5.515625 13.875 5.515625 27.296875 
Q 5.515625 40.765625 12.171875 48.375 
Q 18.84375 56 30.609375 56 
z
" id="DejaVuSans-111"/>
     <path d="M 52 44.1875 
Q 55.375 50.25 60.0625 53.125 
Q 64.75 56 71.09375 56 
Q 79.640625 56 84.28125 50.015625 
Q 88.921875 44.046875 88.921875 33.015625 
L 88.921875 0 
L 79.890625 0 
L 79.890625 32.71875 
Q 79.890625 40.578125 77.09375 44.375 
Q 74.3125 48.1875 68.609375 48.1875 
Q 61.625 48.1875 57.5625 43.546875 
Q 53.515625 38.921875 53.515625 30.90625 
L 53.515625 0 
L 44.484375 0 
L 44.484375 32.71875 
Q 44.484375 40.625 41.703125 44.40625 
Q 38.921875 48.1875 33.109375 48.1875 
Q 26.21875 48.1875 22.15625 43.53125 
Q 18.109375 38.875 18.109375 30.90625 
L 18.109375 0 
L 9.078125 0 
L 9.078125 54.6875 
L 18.109375 54.6875 
L 18.109375 46.1875 
Q 21.1875 51.21875 25.484375 53.609375 
Q 29.78125 56 35.6875 56 
Q 41.65625 56 45.828125 52.96875 
Q 50 49.953125 52 44.1875 
z
" id="DejaVuSans-109"/>
     <path d="M 18.109375 8.203125 
L 18.109375 -20.796875 
L 9.078125 -20.796875 
L 9.078125 54.6875 
L 18.109375 54.6875 
L 18.109375 46.390625 
Q 20.953125 51.265625 25.265625 53.625 
Q 29.59375 56 35.59375 56 
Q 45.5625 56 51.78125 48.09375 
Q 58.015625 40.1875 58.015625 27.296875 
Q 58.015625 14.40625 51.78125 6.484375 
Q 45.5625 -1.421875 35.59375 -1.421875 
Q 29.59375 -1.421875 25.265625 0.953125 
Q 20.953125 3.328125 18.109375 8.203125 
z
M 48.6875 27.296875 
Q 48.6875 37.203125 44.609375 42.84375 
Q 40.53125 48.484375 33.40625 48.484375 
Q 26.265625 48.484375 22.1875 42.84375 
Q 18.109375 37.203125 18.109375 27.296875 
Q 18.109375 17.390625 22.1875 11.75 
Q 26.265625 6.109375 33.40625 6.109375 
Q 40.53125 6.109375 44.609375 11.75 
Q 48.6875 17.390625 48.6875 27.296875 
z
" id="DejaVuSans-112"/>
     <path d="M 54.890625 33.015625 
L 54.890625 0 
L 45.90625 0 
L 45.90625 32.71875 
Q 45.90625 40.484375 42.875 44.328125 
Q 39.84375 48.1875 33.796875 48.1875 
Q 26.515625 48.1875 22.3125 43.546875 
Q 18.109375 38.921875 18.109375 30.90625 
L 18.109375 0 
L 9.078125 0 
L 9.078125 54.6875 
L 18.109375 54.6875 
L 18.109375 46.1875 
Q 21.34375 51.125 25.703125 53.5625 
Q 30.078125 56 35.796875 56 
Q 45.21875 56 50.046875 50.171875 
Q 54.890625 44.34375 54.890625 33.015625 
z
" id="DejaVuSans-110"/>
     <path d="M 56.203125 29.59375 
L 56.203125 25.203125 
L 14.890625 25.203125 
Q 15.484375 15.921875 20.484375 11.0625 
Q 25.484375 6.203125 34.421875 6.203125 
Q 39.59375 6.203125 44.453125 7.46875 
Q 49.3125 8.734375 54.109375 11.28125 
L 54.109375 2.78125 
Q 49.265625 0.734375 44.1875 -0.34375 
Q 39.109375 -1.421875 33.890625 -1.421875 
Q 20.796875 -1.421875 13.15625 6.1875 
Q 5.515625 13.8125 5.515625 26.8125 
Q 5.515625 40.234375 12.765625 48.109375 
Q 20.015625 56 32.328125 56 
Q 43.359375 56 49.78125 48.890625 
Q 56.203125 41.796875 56.203125 29.59375 
z
M 47.21875 32.234375 
Q 47.125 39.59375 43.09375 43.984375 
Q 39.0625 48.390625 32.421875 48.390625 
Q 24.90625 48.390625 20.390625 44.140625 
Q 15.875 39.890625 15.1875 32.171875 
z
" id="DejaVuSans-101"/>
     <path d="M 18.3125 70.21875 
L 18.3125 54.6875 
L 36.8125 54.6875 
L 36.8125 47.703125 
L 18.3125 47.703125 
L 18.3125 18.015625 
Q 18.3125 11.328125 20.140625 9.421875 
Q 21.96875 7.515625 27.59375 7.515625 
L 36.8125 7.515625 
L 36.8125 0 
L 27.59375 0 
Q 17.1875 0 13.234375 3.875 
Q 9.28125 7.765625 9.28125 18.015625 
L 9.28125 47.703125 
L 2.6875 47.703125 
L 2.6875 54.6875 
L 9.28125 54.6875 
L 9.28125 70.21875 
z
" id="DejaVuSans-116"/>
     <path d="M 44.28125 53.078125 
L 44.28125 44.578125 
Q 40.484375 46.53125 36.375 47.5 
Q 32.28125 48.484375 27.875 48.484375 
Q 21.1875 48.484375 17.84375 46.4375 
Q 14.5 44.390625 14.5 40.28125 
Q 14.5 37.15625 16.890625 35.375 
Q 19.28125 33.59375 26.515625 31.984375 
L 29.59375 31.296875 
Q 39.15625 29.25 43.1875 25.515625 
Q 47.21875 21.78125 47.21875 15.09375 
Q 47.21875 7.46875 41.1875 3.015625 
Q 35.15625 -1.421875 24.609375 -1.421875 
Q 20.21875 -1.421875 15.453125 -0.5625 
Q 10.6875 0.296875 5.421875 2 
L 5.421875 11.28125 
Q 10.40625 8.6875 15.234375 7.390625 
Q 20.0625 6.109375 24.8125 6.109375 
Q 31.15625 6.109375 34.5625 8.28125 
Q 37.984375 10.453125 37.984375 14.40625 
Q 37.984375 18.0625 35.515625 20.015625 
Q 33.0625 21.96875 24.703125 23.78125 
L 21.578125 24.515625 
Q 13.234375 26.265625 9.515625 29.90625 
Q 5.8125 33.546875 5.8125 39.890625 
Q 5.8125 47.609375 11.28125 51.796875 
Q 16.75 56 26.8125 56 
Q 31.78125 56 36.171875 55.265625 
Q 40.578125 54.546875 44.28125 53.078125 
z
" id="DejaVuSans-115"/>
     <path id="DejaVuSans-32"/>
     <path d="M 37.109375 75.984375 
L 37.109375 68.5 
L 28.515625 68.5 
Q 23.6875 68.5 21.796875 66.546875 
Q 19.921875 64.59375 19.921875 59.515625 
L 19.921875 54.6875 
L 34.71875 54.6875 
L 34.71875 47.703125 
L 19.921875 47.703125 
L 19.921875 0 
L 10.890625 0 
L 10.890625 47.703125 
L 2.296875 47.703125 
L 2.296875 54.6875 
L 10.890625 54.6875 
L 10.890625 58.5 
Q 10.890625 67.625 15.140625 71.796875 
Q 19.390625 75.984375 28.609375 75.984375 
z
" id="DejaVuSans-102"/>
     <path d="M 54.890625 33.015625 
L 54.890625 0 
L 45.90625 0 
L 45.90625 32.71875 
Q 45.90625 40.484375 42.875 44.328125 
Q 39.84375 48.1875 33.796875 48.1875 
Q 26.515625 48.1875 22.3125 43.546875 
Q 18.109375 38.921875 18.109375 30.90625 
L 18.109375 0 
L 9.078125 0 
L 9.078125 75.984375 
L 18.109375 75.984375 
L 18.109375 46.1875 
Q 21.34375 51.125 25.703125 53.5625 
Q 30.078125 56 35.796875 56 
Q 45.21875 56 50.046875 50.171875 
Q 54.890625 44.34375 54.890625 33.015625 
z
" id="DejaVuSans-104"/>
     <path d="M 44.390625 34.1875 
Q 47.5625 33.109375 50.5625 29.59375 
Q 53.5625 26.078125 56.59375 19.921875 
L 66.609375 0 
L 56 0 
L 46.6875 18.703125 
Q 43.0625 26.03125 39.671875 28.421875 
Q 36.28125 30.8125 30.421875 30.8125 
L 19.671875 30.8125 
L 19.671875 0 
L 9.8125 0 
L 9.8125 72.90625 
L 32.078125 72.90625 
Q 44.578125 72.90625 50.734375 67.671875 
Q 56.890625 62.453125 56.890625 51.90625 
Q 56.890625 45.015625 53.6875 40.46875 
Q 50.484375 35.9375 44.390625 34.1875 
z
M 19.671875 64.796875 
L 19.671875 38.921875 
L 32.078125 38.921875 
Q 39.203125 38.921875 42.84375 42.21875 
Q 46.484375 45.515625 46.484375 51.90625 
Q 46.484375 58.296875 42.84375 61.546875 
Q 39.203125 64.796875 32.078125 64.796875 
z
" id="DejaVuSans-82"/>
     <path d="M 9.421875 54.6875 
L 18.40625 54.6875 
L 18.40625 0 
L 9.421875 0 
z
M 9.421875 75.984375 
L 18.40625 75.984375 
L 18.40625 64.59375 
L 9.421875 64.59375 
z
" id="DejaVuSans-105"/>
     <path d="M 48.78125 52.59375 
L 48.78125 44.1875 
Q 44.96875 46.296875 41.140625 47.34375 
Q 37.3125 48.390625 33.40625 48.390625 
Q 24.65625 48.390625 19.8125 42.84375 
Q 14.984375 37.3125 14.984375 27.296875 
Q 14.984375 17.28125 19.8125 11.734375 
Q 24.65625 6.203125 33.40625 6.203125 
Q 37.3125 6.203125 41.140625 7.25 
Q 44.96875 8.296875 48.78125 10.40625 
L 48.78125 2.09375 
Q 45.015625 0.34375 40.984375 -0.53125 
Q 36.96875 -1.421875 32.421875 -1.421875 
Q 20.0625 -1.421875 12.78125 6.34375 
Q 5.515625 14.109375 5.515625 27.296875 
Q 5.515625 40.671875 12.859375 48.328125 
Q 20.21875 56 33.015625 56 
Q 37.15625 56 41.109375 55.140625 
Q 45.0625 54.296875 48.78125 52.59375 
z
" id="DejaVuSans-99"/>
     <path d="M 34.28125 27.484375 
Q 23.390625 27.484375 19.1875 25 
Q 14.984375 22.515625 14.984375 16.5 
Q 14.984375 11.71875 18.140625 8.90625 
Q 21.296875 6.109375 26.703125 6.109375 
Q 34.1875 6.109375 38.703125 11.40625 
Q 43.21875 16.703125 43.21875 25.484375 
L 43.21875 27.484375 
z
M 52.203125 31.203125 
L 52.203125 0 
L 43.21875 0 
L 43.21875 8.296875 
Q 40.140625 3.328125 35.546875 0.953125 
Q 30.953125 -1.421875 24.3125 -1.421875 
Q 15.921875 -1.421875 10.953125 3.296875 
Q 6 8.015625 6 15.921875 
Q 6 25.140625 12.171875 29.828125 
Q 18.359375 34.515625 30.609375 34.515625 
L 43.21875 34.515625 
L 43.21875 35.40625 
Q 43.21875 41.609375 39.140625 45 
Q 35.0625 48.390625 27.6875 48.390625 
Q 23 48.390625 18.546875 47.265625 
Q 14.109375 46.140625 10.015625 43.890625 
L 10.015625 52.203125 
Q 14.9375 54.109375 19.578125 55.046875 
Q 24.21875 56 28.609375 56 
Q 40.484375 56 46.34375 49.84375 
Q 52.203125 43.703125 52.203125 31.203125 
z
" id="DejaVuSans-97"/>
     <path d="M 9.421875 75.984375 
L 18.40625 75.984375 
L 18.40625 0 
L 9.421875 0 
z
" id="DejaVuSans-108"/>
     <path d="M 8.5 21.578125 
L 8.5 54.6875 
L 17.484375 54.6875 
L 17.484375 21.921875 
Q 17.484375 14.15625 20.5 10.265625 
Q 23.53125 6.390625 29.59375 6.390625 
Q 36.859375 6.390625 41.078125 11.03125 
Q 45.3125 15.671875 45.3125 23.6875 
L 45.3125 54.6875 
L 54.296875 54.6875 
L 54.296875 0 
L 45.3125 0 
L 45.3125 8.40625 
Q 42.046875 3.421875 37.71875 1 
Q 33.40625 -1.421875 27.6875 -1.421875 
Q 18.265625 -1.421875 13.375 4.4375 
Q 8.5 10.296875 8.5 21.578125 
z
M 31.109375 56 
z
" id="DejaVuSans-117"/>
    </defs>
    <g transform="translate(50.920625 22.32)scale(0.12 -0.12)">
     <use xlink:href="#DejaVuSans-67"/>
     <use x="69.824219" xlink:href="#DejaVuSans-111"/>
     <use x="131.005859" xlink:href="#DejaVuSans-109"/>
     <use x="228.417969" xlink:href="#DejaVuSans-112"/>
     <use x="291.894531" xlink:href="#DejaVuSans-111"/>
     <use x="353.076172" xlink:href="#DejaVuSans-110"/>
     <use x="416.455078" xlink:href="#DejaVuSans-101"/>
     <use x="477.978516" xlink:href="#DejaVuSans-110"/>
     <use x="541.357422" xlink:href="#DejaVuSans-116"/>
     <use x="580.566406" xlink:href="#DejaVuSans-115"/>
     <use x="632.666016" xlink:href="#DejaVuSans-32"/>
     <use x="664.453125" xlink:href="#DejaVuSans-111"/>
     <use x="725.634766" xlink:href="#DejaVuSans-102"/>
     <use x="760.839844" xlink:href="#DejaVuSans-32"/>
     <use x="792.626953" xlink:href="#DejaVuSans-116"/>
     <use x="831.835938" xlink:href="#DejaVuSans-104"/>
     <use x="895.214844" xlink:href="#DejaVuSans-101"/>
     <use x="956.738281" xlink:href="#DejaVuSans-32"/>
     <use x="988.525391" xlink:href="#DejaVuSans-82"/>
     <use x="1058.007812" xlink:href="#DejaVuSans-105"/>
     <use x="1085.791016" xlink:href="#DejaVuSans-99"/>
     <use x="1140.771484" xlink:href="#DejaVuSans-99"/>
     <use x="1195.751953" xlink:href="#DejaVuSans-97"/>
     <use x="1257.03125" xlink:href="#DejaVuSans-116"/>
     <use x="1296.240234" xlink:href="#DejaVuSans-105"/>
     <use x="1324.023438" xlink:href="#DejaVuSans-32"/>
     <use x="1355.810547" xlink:href="#DejaVuSans-115"/>
     <use x="1407.910156" xlink:href="#DejaVuSans-111"/>
     <use x="1469.091797" xlink:href="#DejaVuSans-108"/>
     <use x="1496.875" xlink:href="#DejaVuSans-117"/>
     <use x="1560.253906" xlink:href="#DejaVuSans-116"/>
     <use x="1599.462891" xlink:href="#DejaVuSans-105"/>
     <use x="1627.246094" xlink:href="#DejaVuSans-111"/>
     <use x="1688.427734" xlink:href="#DejaVuSans-110"/>
    </g>
   </g>
  </g>
  <g id="axes_2">
   <g id="patch_7">
    <path d="M 320.425 139.52 
L 565.2 139.52 
L 565.2 28.32 
L 320.425 28.32 
z
" style="fill:none;"/>
   </g>
   <g id="matplotlib.axis_3">
    <g id="xtick_7">
     <g id="line2d_16">
      <g>
       <use style="stroke:#000000;stroke-width:0.8;" x="331.551136" xlink:href="#meca4e8e5c9" y="139.52"/>
      </g>
     </g>
     <g id="text_13">
      <!-- 0 -->
      <g transform="translate(328.369886 154.118437)scale(0.1 -0.1)">
       <use xlink:href="#DejaVuSans-48"/>
      </g>
     </g>
    </g>
    <g id="xtick_8">
     <g id="line2d_17">
      <g>
       <use style="stroke:#000000;stroke-width:0.8;" x="376.055682" xlink:href="#meca4e8e5c9" y="139.52"/>
      </g>
     </g>
     <g id="text_14">
      <!-- 2 -->
      <g transform="translate(372.874432 154.118437)scale(0.1 -0.1)">
       <use xlink:href="#DejaVuSans-50"/>
      </g>
     </g>
    </g>
    <g id="xtick_9">
     <g id="line2d_18">
      <g>
       <use style="stroke:#000000;stroke-width:0.8;" x="420.560227" xlink:href="#meca4e8e5c9" y="139.52"/>
      </g>
     </g>
     <g id="text_15">
      <!-- 4 -->
      <g transform="translate(417.378977 154.118437)scale(0.1 -0.1)">
       <use xlink:href="#DejaVuSans-52"/>
      </g>
     </g>
    </g>
    <g id="xtick_10">
     <g id="line2d_19">
      <g>
       <use style="stroke:#000000;stroke-width:0.8;" x="465.064773" xlink:href="#meca4e8e5c9" y="139.52"/>
      </g>
     </g>
     <g id="text_16">
      <!-- 6 -->
      <g transform="translate(461.883523 154.118437)scale(0.1 -0.1)">
       <use xlink:href="#DejaVuSans-54"/>
      </g>
     </g>
    </g>
    <g id="xtick_11">
     <g id="line2d_20">
      <g>
       <use style="stroke:#000000;stroke-width:0.8;" x="509.569318" xlink:href="#meca4e8e5c9" y="139.52"/>
      </g>
     </g>
     <g id="text_17">
      <!-- 8 -->
      <g transform="translate(506.388068 154.118437)scale(0.1 -0.1)">
       <use xlink:href="#DejaVuSans-56"/>
      </g>
     </g>
    </g>
    <g id="xtick_12">
     <g id="line2d_21">
      <g>
       <use style="stroke:#000000;stroke-width:0.8;" x="554.073864" xlink:href="#meca4e8e5c9" y="139.52"/>
      </g>
     </g>
     <g id="text_18">
      <!-- 10 -->
      <g transform="translate(547.711364 154.118437)scale(0.1 -0.1)">
       <use xlink:href="#DejaVuSans-49"/>
       <use x="63.623047" xlink:href="#DejaVuSans-48"/>
      </g>
     </g>
    </g>
   </g>
   <g id="matplotlib.axis_4">
    <g id="ytick_6">
     <g id="line2d_22">
      <g>
       <use style="stroke:#000000;stroke-width:0.8;" x="320.425" xlink:href="#m9cc193a9e2" y="134.465455"/>
      </g>
     </g>
     <g id="text_19">
      <!-- 0 -->
      <g transform="translate(307.0625 138.264673)scale(0.1 -0.1)">
       <use xlink:href="#DejaVuSans-48"/>
      </g>
     </g>
    </g>
    <g id="ytick_7">
     <g id="line2d_23">
      <g>
       <use style="stroke:#000000;stroke-width:0.8;" x="320.425" xlink:href="#m9cc193a9e2" y="109.697993"/>
      </g>
     </g>
     <g id="text_20">
      <!-- 1 -->
      <g transform="translate(307.0625 113.497212)scale(0.1 -0.1)">
       <use xlink:href="#DejaVuSans-49"/>
      </g>
     </g>
    </g>
    <g id="ytick_8">
     <g id="line2d_24">
      <g>
       <use style="stroke:#000000;stroke-width:0.8;" x="320.425" xlink:href="#m9cc193a9e2" y="84.930531"/>
      </g>
     </g>
     <g id="text_21">
      <!-- 2 -->
      <g transform="translate(307.0625 88.72975)scale(0.1 -0.1)">
       <use xlink:href="#DejaVuSans-50"/>
      </g>
     </g>
    </g>
    <g id="ytick_9">
     <g id="line2d_25">
      <g>
       <use style="stroke:#000000;stroke-width:0.8;" x="320.425" xlink:href="#m9cc193a9e2" y="60.16307"/>
      </g>
     </g>
     <g id="text_22">
      <!-- 3 -->
      <g transform="translate(307.0625 63.962288)scale(0.1 -0.1)">
       <use xlink:href="#DejaVuSans-51"/>
      </g>
     </g>
    </g>
    <g id="ytick_10">
     <g id="line2d_26">
      <g>
       <use style="stroke:#000000;stroke-width:0.8;" x="320.425" xlink:href="#m9cc193a9e2" y="35.395608"/>
      </g>
     </g>
     <g id="text_23">
      <!-- 4 -->
      <g transform="translate(307.0625 39.194827)scale(0.1 -0.1)">
       <use xlink:href="#DejaVuSans-52"/>
      </g>
     </g>
    </g>
    <g id="text_24">
     <!-- 1e7 -->
     <defs>
      <path d="M 8.203125 72.90625 
L 55.078125 72.90625 
L 55.078125 68.703125 
L 28.609375 0 
L 18.3125 0 
L 43.21875 64.59375 
L 8.203125 64.59375 
z
" id="DejaVuSans-55"/>
     </defs>
     <g transform="translate(320.425 25.32)scale(0.1 -0.1)">
      <use xlink:href="#DejaVuSans-49"/>
      <use x="63.623047" xlink:href="#DejaVuSans-101"/>
      <use x="125.146484" xlink:href="#DejaVuSans-55"/>
     </g>
    </g>
   </g>
   <g id="line2d_27">
    <path clip-path="url(#pa5053f4e33)" d="M 331.551136 134.465452 
L 333.776364 134.465453 
L 336.001591 134.465452 
L 338.226818 134.465452 
L 340.452045 134.465452 
L 342.677273 134.465451 
L 344.9025 134.465451 
L 347.127727 134.46545 
L 349.352955 134.465449 
L 351.578182 134.465448 
L 353.803409 134.465447 
L 356.028636 134.465445 
L 358.253864 134.465444 
L 360.479091 134.465441 
L 362.704318 134.465439 
L 364.929545 134.465436 
L 367.154773 134.465432 
L 369.38 134.465427 
L 371.605227 134.465422 
L 373.830455 134.465416 
L 376.055682 134.465408 
L 378.280909 134.465398 
L 380.506136 134.465387 
L 382.731364 134.465374 
L 384.956591 134.465358 
L 387.181818 134.465338 
L 389.407045 134.465315 
L 391.632273 134.465287 
L 393.8575 134.465253 
L 396.082727 134.465213 
L 398.307955 134.465165 
L 400.533182 134.465107 
L 402.758409 134.465037 
L 404.983636 134.464954 
L 407.208864 134.464854 
L 409.434091 134.464734 
L 411.659318 134.464589 
L 413.884545 134.464416 
L 416.109773 134.464209 
L 418.335 134.463959 
L 420.560227 134.46366 
L 422.785455 134.463302 
L 425.010682 134.462871 
L 427.235909 134.462354 
L 429.461136 134.461734 
L 431.686364 134.46099 
L 433.911591 134.460098 
L 436.136818 134.459026 
L 438.362045 134.45774 
L 440.587273 134.456198 
L 442.8125 134.454346 
L 445.037727 134.452125 
L 447.262955 134.449459 
L 449.488182 134.446259 
L 451.713409 134.44242 
L 453.938636 134.437813 
L 456.163864 134.432285 
L 458.389091 134.425651 
L 460.614318 134.417691 
L 462.839545 134.408138 
L 465.064773 134.396675 
L 467.29 134.382919 
L 469.515227 134.366411 
L 471.740455 134.346603 
L 473.965682 134.322832 
L 476.190909 134.294308 
L 478.416136 134.260079 
L 480.641364 134.219003 
L 482.866591 134.169713 
L 485.091818 134.110565 
L 487.317045 134.039587 
L 489.542273 133.954413 
L 491.7675 133.852205 
L 493.992727 133.729555 
L 496.217955 133.582375 
L 498.443182 133.405759 
L 500.668409 133.19382 
L 502.893636 132.939494 
L 505.118864 132.634301 
L 507.344091 132.268071 
L 509.569318 131.828594 
L 511.794545 131.301222 
L 514.019773 130.668375 
L 516.245 129.908959 
L 518.470227 128.99766 
L 520.695455 127.904102 
L 522.920682 126.591831 
L 525.145909 125.017106 
L 527.371136 123.127437 
L 529.596364 120.859833 
L 531.821591 118.138709 
L 534.046818 114.873359 
L 536.272045 110.95494 
L 538.497273 106.252838 
L 540.7225 100.610314 
L 542.947727 93.839286 
L 545.172955 85.714052 
L 547.398182 75.963772 
L 549.623409 64.263435 
L 551.848636 50.223031 
L 554.073864 33.374545 
" style="fill:none;stroke:#0072b2;stroke-linecap:square;stroke-width:1.5;"/>
   </g>
   <g id="line2d_28">
    <path clip-path="url(#pa5053f4e33)" d="M 331.551136 134.465452 
L 333.776364 134.465453 
L 336.001591 134.465454 
L 338.226818 134.465454 
L 340.452045 134.465454 
L 342.677273 134.465454 
L 344.9025 134.465454 
L 347.127727 134.465454 
L 349.352955 134.465454 
L 351.578182 134.465454 
L 353.803409 134.465454 
L 356.028636 134.465454 
L 358.253864 134.465454 
L 360.479091 134.465455 
L 362.704318 134.465455 
L 364.929545 134.465455 
L 367.154773 134.465455 
L 369.38 134.465455 
L 371.605227 134.465455 
L 373.830455 134.465455 
L 376.055682 134.465455 
L 378.280909 134.465455 
L 380.506136 134.465455 
L 382.731364 134.465455 
L 384.956591 134.465455 
L 387.181818 134.465455 
L 389.407045 134.465455 
L 391.632273 134.465455 
L 393.8575 134.465455 
L 396.082727 134.465455 
L 398.307955 134.465455 
L 400.533182 134.465455 
L 402.758409 134.465455 
L 404.983636 134.465455 
L 407.208864 134.465455 
L 409.434091 134.465455 
L 411.659318 134.465455 
L 413.884545 134.465455 
L 416.109773 134.465455 
L 418.335 134.465455 
L 420.560227 134.465455 
L 422.785455 134.465455 
L 425.010682 134.465455 
L 427.235909 134.465455 
L 429.461136 134.465455 
L 431.686364 134.465455 
L 433.911591 134.465455 
L 436.136818 134.465455 
L 438.362045 134.465455 
L 440.587273 134.465455 
L 442.8125 134.465455 
L 445.037727 134.465455 
L 447.262955 134.465455 
L 449.488182 134.465455 
L 451.713409 134.465455 
L 453.938636 134.465455 
L 456.163864 134.465455 
L 458.389091 134.465455 
L 460.614318 134.465455 
L 462.839545 134.465455 
L 465.064773 134.465455 
L 467.29 134.465455 
L 469.515227 134.465455 
L 471.740455 134.465455 
L 473.965682 134.465455 
L 476.190909 134.465455 
L 478.416136 134.465455 
L 480.641364 134.465455 
L 482.866591 134.465455 
L 485.091818 134.465455 
L 487.317045 134.465455 
L 489.542273 134.465455 
L 491.7675 134.465455 
L 493.992727 134.465455 
L 496.217955 134.465455 
L 498.443182 134.465455 
L 500.668409 134.465455 
L 502.893636 134.465455 
L 505.118864 134.465455 
L 507.344091 134.465455 
L 509.569318 134.465455 
L 511.794545 134.465455 
L 514.019773 134.465455 
L 516.245 134.465455 
L 518.470227 134.465455 
L 520.695455 134.465455 
L 522.920682 134.465455 
L 525.145909 134.465455 
L 527.371136 134.465455 
L 529.596364 134.465454 
L 531.821591 134.465454 
L 534.046818 134.465454 
L 536.272045 134.465454 
L 538.497273 134.465454 
L 540.7225 134.465454 
L 542.947727 134.465454 
L 545.172955 134.465454 
L 547.398182 134.465454 
L 549.623409 134.465454 
L 551.848636 134.465454 
L 554.073864 134.465453 
" style="fill:none;stroke:#009e73;stroke-linecap:square;stroke-width:1.5;"/>
   </g>
   <g id="patch_8">
    <path d="M 320.425 139.52 
L 320.425 28.32 
" style="fill:none;stroke:#000000;stroke-linecap:square;stroke-linejoin:miter;stroke-width:0.8;"/>
   </g>
   <g id="patch_9">
    <path d="M 565.2 139.52 
L 565.2 28.32 
" style="fill:none;stroke:#000000;stroke-linecap:square;stroke-linejoin:miter;stroke-width:0.8;"/>
   </g>
   <g id="patch_10">
    <path d="M 320.425 139.52 
L 565.2 139.52 
" style="fill:none;stroke:#000000;stroke-linecap:square;stroke-linejoin:miter;stroke-width:0.8;"/>
   </g>
   <g id="patch_11">
    <path d="M 320.425 28.32 
L 565.2 28.32 
" style="fill:none;stroke:#000000;stroke-linecap:square;stroke-linejoin:miter;stroke-width:0.8;"/>
   </g>
   <g id="text_25">
    <!-- Optimal state $x$ -->
    <defs>
     <path d="M 39.40625 66.21875 
Q 28.65625 66.21875 22.328125 58.203125 
Q 16.015625 50.203125 16.015625 36.375 
Q 16.015625 22.609375 22.328125 14.59375 
Q 28.65625 6.59375 39.40625 6.59375 
Q 50.140625 6.59375 56.421875 14.59375 
Q 62.703125 22.609375 62.703125 36.375 
Q 62.703125 50.203125 56.421875 58.203125 
Q 50.140625 66.21875 39.40625 66.21875 
z
M 39.40625 74.21875 
Q 54.734375 74.21875 63.90625 63.9375 
Q 73.09375 53.65625 73.09375 36.375 
Q 73.09375 19.140625 63.90625 8.859375 
Q 54.734375 -1.421875 39.40625 -1.421875 
Q 24.03125 -1.421875 14.8125 8.828125 
Q 5.609375 19.09375 5.609375 36.375 
Q 5.609375 53.65625 14.8125 63.9375 
Q 24.03125 74.21875 39.40625 74.21875 
z
" id="DejaVuSans-79"/>
     <path d="M 60.015625 54.6875 
L 34.90625 27.875 
L 50.296875 0 
L 39.984375 0 
L 28.421875 21.6875 
L 8.296875 0 
L -2.59375 0 
L 24.3125 28.8125 
L 10.015625 54.6875 
L 20.3125 54.6875 
L 30.8125 34.90625 
L 49.125 54.6875 
z
" id="DejaVuSans-Oblique-120"/>
    </defs>
    <g transform="translate(396.4925 22.32)scale(0.12 -0.12)">
     <use transform="translate(0 0.015625)" xlink:href="#DejaVuSans-79"/>
     <use transform="translate(78.710938 0.015625)" xlink:href="#DejaVuSans-112"/>
     <use transform="translate(142.1875 0.015625)" xlink:href="#DejaVuSans-116"/>
     <use transform="translate(181.396484 0.015625)" xlink:href="#DejaVuSans-105"/>
     <use transform="translate(209.179688 0.015625)" xlink:href="#DejaVuSans-109"/>
     <use transform="translate(306.591797 0.015625)" xlink:href="#DejaVuSans-97"/>
     <use transform="translate(367.871094 0.015625)" xlink:href="#DejaVuSans-108"/>
     <use transform="translate(395.654297 0.015625)" xlink:href="#DejaVuSans-32"/>
     <use transform="translate(427.441406 0.015625)" xlink:href="#DejaVuSans-115"/>
     <use transform="translate(479.541016 0.015625)" xlink:href="#DejaVuSans-116"/>
     <use transform="translate(518.75 0.015625)" xlink:href="#DejaVuSans-97"/>
     <use transform="translate(580.029297 0.015625)" xlink:href="#DejaVuSans-116"/>
     <use transform="translate(619.238281 0.015625)" xlink:href="#DejaVuSans-101"/>
     <use transform="translate(680.761719 0.015625)" xlink:href="#DejaVuSans-32"/>
     <use transform="translate(712.548828 0.015625)" xlink:href="#DejaVuSans-Oblique-120"/>
    </g>
   </g>
  </g>
  <g id="axes_3">
   <g id="patch_12">
    <path d="M 33.64 296.12 
L 278.415 296.12 
L 278.415 184.92 
L 33.64 184.92 
z
" style="fill:none;"/>
   </g>
   <g id="matplotlib.axis_5">
    <g id="xtick_13">
     <g id="line2d_29">
      <g>
       <use style="stroke:#000000;stroke-width:0.8;" x="44.766136" xlink:href="#meca4e8e5c9" y="296.12"/>
      </g>
     </g>
     <g id="text_26">
      <!-- 0 -->
      <g transform="translate(41.584886 310.718437)scale(0.1 -0.1)">
       <use xlink:href="#DejaVuSans-48"/>
      </g>
     </g>
    </g>
    <g id="xtick_14">
     <g id="line2d_30">
      <g>
       <use style="stroke:#000000;stroke-width:0.8;" x="89.270682" xlink:href="#meca4e8e5c9" y="296.12"/>
      </g>
     </g>
     <g id="text_27">
      <!-- 2 -->
      <g transform="translate(86.089432 310.718437)scale(0.1 -0.1)">
       <use xlink:href="#DejaVuSans-50"/>
      </g>
     </g>
    </g>
    <g id="xtick_15">
     <g id="line2d_31">
      <g>
       <use style="stroke:#000000;stroke-width:0.8;" x="133.775227" xlink:href="#meca4e8e5c9" y="296.12"/>
      </g>
     </g>
     <g id="text_28">
      <!-- 4 -->
      <g transform="translate(130.593977 310.718437)scale(0.1 -0.1)">
       <use xlink:href="#DejaVuSans-52"/>
      </g>
     </g>
    </g>
    <g id="xtick_16">
     <g id="line2d_32">
      <g>
       <use style="stroke:#000000;stroke-width:0.8;" x="178.279773" xlink:href="#meca4e8e5c9" y="296.12"/>
      </g>
     </g>
     <g id="text_29">
      <!-- 6 -->
      <g transform="translate(175.098523 310.718437)scale(0.1 -0.1)">
       <use xlink:href="#DejaVuSans-54"/>
      </g>
     </g>
    </g>
    <g id="xtick_17">
     <g id="line2d_33">
      <g>
       <use style="stroke:#000000;stroke-width:0.8;" x="222.784318" xlink:href="#meca4e8e5c9" y="296.12"/>
      </g>
     </g>
     <g id="text_30">
      <!-- 8 -->
      <g transform="translate(219.603068 310.718437)scale(0.1 -0.1)">
       <use xlink:href="#DejaVuSans-56"/>
      </g>
     </g>
    </g>
    <g id="xtick_18">
     <g id="line2d_34">
      <g>
       <use style="stroke:#000000;stroke-width:0.8;" x="267.288864" xlink:href="#meca4e8e5c9" y="296.12"/>
      </g>
     </g>
     <g id="text_31">
      <!-- 10 -->
      <g transform="translate(260.926364 310.718437)scale(0.1 -0.1)">
       <use xlink:href="#DejaVuSans-49"/>
       <use x="63.623047" xlink:href="#DejaVuSans-48"/>
      </g>
     </g>
    </g>
   </g>
   <g id="matplotlib.axis_6">
    <g id="ytick_11">
     <g id="line2d_35">
      <g>
       <use style="stroke:#000000;stroke-width:0.8;" x="33.64" xlink:href="#m9cc193a9e2" y="291.065681"/>
      </g>
     </g>
     <g id="text_32">
      <!-- 0.0 -->
      <defs>
       <path d="M 10.6875 12.40625 
L 21 12.40625 
L 21 0 
L 10.6875 0 
z
" id="DejaVuSans-46"/>
      </defs>
      <g transform="translate(10.736875 294.8649)scale(0.1 -0.1)">
       <use xlink:href="#DejaVuSans-48"/>
       <use x="63.623047" xlink:href="#DejaVuSans-46"/>
       <use x="95.410156" xlink:href="#DejaVuSans-48"/>
      </g>
     </g>
    </g>
    <g id="ytick_12">
     <g id="line2d_36">
      <g>
       <use style="stroke:#000000;stroke-width:0.8;" x="33.64" xlink:href="#m9cc193a9e2" y="265.792897"/>
      </g>
     </g>
     <g id="text_33">
      <!-- 0.5 -->
      <defs>
       <path d="M 10.796875 72.90625 
L 49.515625 72.90625 
L 49.515625 64.59375 
L 19.828125 64.59375 
L 19.828125 46.734375 
Q 21.96875 47.46875 24.109375 47.828125 
Q 26.265625 48.1875 28.421875 48.1875 
Q 40.625 48.1875 47.75 41.5 
Q 54.890625 34.8125 54.890625 23.390625 
Q 54.890625 11.625 47.5625 5.09375 
Q 40.234375 -1.421875 26.90625 -1.421875 
Q 22.3125 -1.421875 17.546875 -0.640625 
Q 12.796875 0.140625 7.71875 1.703125 
L 7.71875 11.625 
Q 12.109375 9.234375 16.796875 8.0625 
Q 21.484375 6.890625 26.703125 6.890625 
Q 35.15625 6.890625 40.078125 11.328125 
Q 45.015625 15.765625 45.015625 23.390625 
Q 45.015625 31 40.078125 35.4375 
Q 35.15625 39.890625 26.703125 39.890625 
Q 22.75 39.890625 18.8125 39.015625 
Q 14.890625 38.140625 10.796875 36.28125 
z
" id="DejaVuSans-53"/>
      </defs>
      <g transform="translate(10.736875 269.592116)scale(0.1 -0.1)">
       <use xlink:href="#DejaVuSans-48"/>
       <use x="63.623047" xlink:href="#DejaVuSans-46"/>
       <use x="95.410156" xlink:href="#DejaVuSans-53"/>
      </g>
     </g>
    </g>
    <g id="ytick_13">
     <g id="line2d_37">
      <g>
       <use style="stroke:#000000;stroke-width:0.8;" x="33.64" xlink:href="#m9cc193a9e2" y="240.520113"/>
      </g>
     </g>
     <g id="text_34">
      <!-- 1.0 -->
      <g transform="translate(10.736875 244.319332)scale(0.1 -0.1)">
       <use xlink:href="#DejaVuSans-49"/>
       <use x="63.623047" xlink:href="#DejaVuSans-46"/>
       <use x="95.410156" xlink:href="#DejaVuSans-48"/>
      </g>
     </g>
    </g>
    <g id="ytick_14">
     <g id="line2d_38">
      <g>
       <use style="stroke:#000000;stroke-width:0.8;" x="33.64" xlink:href="#m9cc193a9e2" y="215.247329"/>
      </g>
     </g>
     <g id="text_35">
      <!-- 1.5 -->
      <g transform="translate(10.736875 219.046548)scale(0.1 -0.1)">
       <use xlink:href="#DejaVuSans-49"/>
       <use x="63.623047" xlink:href="#DejaVuSans-46"/>
       <use x="95.410156" xlink:href="#DejaVuSans-53"/>
      </g>
     </g>
    </g>
    <g id="ytick_15">
     <g id="line2d_39">
      <g>
       <use style="stroke:#000000;stroke-width:0.8;" x="33.64" xlink:href="#m9cc193a9e2" y="189.974545"/>
      </g>
     </g>
     <g id="text_36">
      <!-- 2.0 -->
      <g transform="translate(10.736875 193.773764)scale(0.1 -0.1)">
       <use xlink:href="#DejaVuSans-50"/>
       <use x="63.623047" xlink:href="#DejaVuSans-46"/>
       <use x="95.410156" xlink:href="#DejaVuSans-48"/>
      </g>
     </g>
    </g>
   </g>
   <g id="line2d_40">
    <path clip-path="url(#pc9d83a0c97)" d="M 44.766136 189.974545 
L 46.991364 240.520113 
L 49.216591 259.127305 
L 51.441818 268.912261 
L 53.667045 274.964921 
L 55.892273 279.056237 
L 58.1175 281.970218 
L 60.342727 284.113048 
L 62.567955 285.72048 
L 64.793182 286.94149 
L 67.018409 287.876359 
L 69.243636 288.595764 
L 71.468864 289.151144 
L 73.694091 289.580778 
L 75.919318 289.91357 
L 78.144545 290.171566 
L 80.369773 290.371683 
L 82.595 290.526958 
L 84.820227 290.647466 
L 87.045455 290.741005 
L 89.270682 290.813616 
L 91.495909 290.869985 
L 93.721136 290.913747 
L 95.946364 290.947721 
L 98.171591 290.974099 
L 100.396818 290.994577 
L 102.622045 291.010477 
L 104.847273 291.022821 
L 107.0725 291.032404 
L 109.297727 291.039845 
L 111.522955 291.045622 
L 113.748182 291.050107 
L 115.973409 291.053589 
L 118.198636 291.056292 
L 120.423864 291.058391 
L 122.649091 291.06002 
L 124.874318 291.061285 
L 127.099545 291.062266 
L 129.324773 291.063028 
L 131.55 291.063619 
L 133.775227 291.064077 
L 136.000455 291.064431 
L 138.225682 291.064706 
L 140.450909 291.064917 
L 142.676136 291.065079 
L 144.901364 291.065203 
L 147.126591 291.065295 
L 149.351818 291.065363 
L 151.577045 291.06541 
L 153.802273 291.06544 
L 156.0275 291.065455 
L 158.252727 291.065454 
L 160.477955 291.06544 
L 162.703182 291.065409 
L 164.928409 291.065361 
L 167.153636 291.065293 
L 169.378864 291.0652 
L 171.604091 291.065075 
L 173.829318 291.064912 
L 176.054545 291.064699 
L 178.279773 291.064423 
L 180.505 291.064066 
L 182.730227 291.063604 
L 184.955455 291.063009 
L 187.180682 291.062242 
L 189.405909 291.061254 
L 191.631136 291.05998 
L 193.856364 291.05834 
L 196.081591 291.056226 
L 198.306818 291.053504 
L 200.532045 291.049998 
L 202.757273 291.045481 
L 204.9825 291.039664 
L 207.207727 291.032171 
L 209.432955 291.02252 
L 211.658182 291.010089 
L 213.883409 290.994079 
L 216.108636 290.973457 
L 218.333864 290.946895 
L 220.559091 290.912682 
L 222.784318 290.868616 
L 225.009545 290.811855 
L 227.234773 290.738741 
L 229.46 290.644561 
L 231.685227 290.523237 
L 233.910455 290.366932 
L 236.135682 290.165531 
L 238.360909 289.905967 
L 240.586136 289.571325 
L 242.811364 289.139659 
L 245.036591 288.582363 
L 247.261818 287.861921 
L 249.487045 286.928627 
L 251.712273 285.71562 
L 253.9375 284.130877 
L 256.162727 282.043361 
L 258.387955 279.257035 
L 260.613182 275.457225 
L 262.838409 270.086014 
L 265.063636 262.001859 
L 267.288864 248.2825 
" style="fill:none;stroke:#0072b2;stroke-linecap:square;stroke-width:1.5;"/>
   </g>
   <g id="line2d_41">
    <path clip-path="url(#pc9d83a0c97)" d="M 44.766136 189.974545 
L 46.991364 240.520113 
L 49.216591 259.127305 
L 51.441818 268.912261 
L 53.667045 274.964921 
L 55.892273 279.056237 
L 58.1175 281.970218 
L 60.342727 284.113048 
L 62.567955 285.72048 
L 64.793182 286.94149 
L 67.018409 287.876359 
L 69.243636 288.595764 
L 71.468864 289.151144 
L 73.694091 289.580778 
L 75.919318 289.91357 
L 78.144545 290.171566 
L 80.369773 290.371683 
L 82.595 290.526958 
L 84.820227 290.647466 
L 87.045455 290.741005 
L 89.270682 290.813616 
L 91.495909 290.869985 
L 93.721136 290.913747 
L 95.946364 290.947721 
L 98.171591 290.974099 
L 100.396818 290.994577 
L 102.622045 291.010477 
L 104.847273 291.022821 
L 107.0725 291.032404 
L 109.297727 291.039845 
L 111.522955 291.045622 
L 113.748182 291.050107 
L 115.973409 291.053589 
L 118.198636 291.056292 
L 120.423864 291.058391 
L 122.649091 291.06002 
L 124.874318 291.061285 
L 127.099545 291.062266 
L 129.324773 291.063028 
L 131.55 291.063619 
L 133.775227 291.064077 
L 136.000455 291.064431 
L 138.225682 291.064706 
L 140.450909 291.064917 
L 142.676136 291.065079 
L 144.901364 291.065203 
L 147.126591 291.065295 
L 149.351818 291.065363 
L 151.577045 291.06541 
L 153.802273 291.06544 
L 156.0275 291.065455 
L 158.252727 291.065454 
L 160.477955 291.06544 
L 162.703182 291.065409 
L 164.928409 291.065361 
L 167.153636 291.065293 
L 169.378864 291.0652 
L 171.604091 291.065075 
L 173.829318 291.064912 
L 176.054545 291.064699 
L 178.279773 291.064423 
L 180.505 291.064066 
L 182.730227 291.063604 
L 184.955455 291.063009 
L 187.180682 291.062242 
L 189.405909 291.061254 
L 191.631136 291.05998 
L 193.856364 291.05834 
L 196.081591 291.056226 
L 198.306818 291.053504 
L 200.532045 291.049998 
L 202.757273 291.045481 
L 204.9825 291.039664 
L 207.207727 291.032171 
L 209.432955 291.02252 
L 211.658182 291.010089 
L 213.883409 290.994079 
L 216.108636 290.973457 
L 218.333864 290.946895 
L 220.559091 290.912682 
L 222.784318 290.868616 
L 225.009545 290.811855 
L 227.234773 290.738741 
L 229.46 290.644561 
L 231.685227 290.523237 
L 233.910455 290.366932 
L 236.135682 290.165531 
L 238.360909 289.905967 
L 240.586136 289.571325 
L 242.811364 289.139659 
L 245.036591 288.582363 
L 247.261818 287.861921 
L 249.487045 286.928627 
L 251.712273 285.71562 
L 253.9375 284.130877 
L 256.162727 282.043361 
L 258.387955 279.257035 
L 260.613182 275.457225 
L 262.838409 270.086014 
L 265.063636 262.001859 
L 267.288864 248.2825 
" style="fill:none;stroke:#009e73;stroke-linecap:square;stroke-width:1.5;"/>
   </g>
   <g id="patch_13">
    <path d="M 33.64 296.12 
L 33.64 184.92 
" style="fill:none;stroke:#000000;stroke-linecap:square;stroke-linejoin:miter;stroke-width:0.8;"/>
   </g>
   <g id="patch_14">
    <path d="M 278.415 296.12 
L 278.415 184.92 
" style="fill:none;stroke:#000000;stroke-linecap:square;stroke-linejoin:miter;stroke-width:0.8;"/>
   </g>
   <g id="patch_15">
    <path d="M 33.64 296.12 
L 278.415 296.12 
" style="fill:none;stroke:#000000;stroke-linecap:square;stroke-linejoin:miter;stroke-width:0.8;"/>
   </g>
   <g id="patch_16">
    <path d="M 33.64 184.92 
L 278.415 184.92 
" style="fill:none;stroke:#000000;stroke-linecap:square;stroke-linejoin:miter;stroke-width:0.8;"/>
   </g>
   <g id="text_37">
    <!-- Output $(Fx, Cx)$ -->
    <defs>
     <path d="M 31 75.875 
Q 24.46875 64.65625 21.28125 53.65625 
Q 18.109375 42.671875 18.109375 31.390625 
Q 18.109375 20.125 21.3125 9.0625 
Q 24.515625 -2 31 -13.1875 
L 23.1875 -13.1875 
Q 15.875 -1.703125 12.234375 9.375 
Q 8.59375 20.453125 8.59375 31.390625 
Q 8.59375 42.28125 12.203125 53.3125 
Q 15.828125 64.359375 23.1875 75.875 
z
" id="DejaVuSans-40"/>
     <path d="M 16.890625 72.90625 
L 58.6875 72.90625 
L 57.078125 64.59375 
L 25.09375 64.59375 
L 20.90625 43.109375 
L 49.8125 43.109375 
L 48.1875 34.8125 
L 19.28125 34.8125 
L 12.5 0 
L 2.6875 0 
z
" id="DejaVuSans-Oblique-70"/>
     <path d="M 11.71875 12.40625 
L 22.015625 12.40625 
L 22.015625 4 
L 14.015625 -11.625 
L 7.71875 -11.625 
L 11.71875 4 
z
" id="DejaVuSans-44"/>
     <path d="M 69.484375 67.28125 
L 67.484375 56.890625 
Q 62.796875 61.625 57.546875 63.921875 
Q 52.296875 66.21875 46.1875 66.21875 
Q 37.84375 66.21875 31.515625 62.203125 
Q 25.203125 58.203125 20.609375 50 
Q 17.671875 44.734375 16.125 38.84375 
Q 14.59375 32.953125 14.59375 27 
Q 14.59375 17.046875 19.75 11.8125 
Q 24.90625 6.59375 34.71875 6.59375 
Q 41.5 6.59375 47.75 8.765625 
Q 54 10.9375 59.90625 15.28125 
L 57.625 3.609375 
Q 51.8125 1.125 45.875 -0.140625 
Q 39.9375 -1.421875 33.984375 -1.421875 
Q 19.96875 -1.421875 12.078125 6.1875 
Q 4.203125 13.8125 4.203125 27.390625 
Q 4.203125 36.078125 7.203125 44.46875 
Q 10.203125 52.875 15.828125 59.8125 
Q 21.78125 67.1875 29.421875 70.703125 
Q 37.0625 74.21875 47.21875 74.21875 
Q 53.46875 74.21875 59.0625 72.484375 
Q 64.65625 70.75 69.484375 67.28125 
z
" id="DejaVuSans-Oblique-67"/>
     <path d="M 8.015625 75.875 
L 15.828125 75.875 
Q 23.140625 64.359375 26.78125 53.3125 
Q 30.421875 42.28125 30.421875 31.390625 
Q 30.421875 20.453125 26.78125 9.375 
Q 23.140625 -1.703125 15.828125 -13.1875 
L 8.015625 -13.1875 
Q 14.5 -2 17.703125 9.0625 
Q 20.90625 20.125 20.90625 31.390625 
Q 20.90625 42.671875 17.703125 53.65625 
Q 14.5 64.65625 8.015625 75.875 
z
" id="DejaVuSans-41"/>
    </defs>
    <g transform="translate(110.7275 178.92)scale(0.12 -0.12)">
     <use transform="translate(0 0.125)" xlink:href="#DejaVuSans-79"/>
     <use transform="translate(78.710938 0.125)" xlink:href="#DejaVuSans-117"/>
     <use transform="translate(142.089844 0.125)" xlink:href="#DejaVuSans-116"/>
     <use transform="translate(181.298828 0.125)" xlink:href="#DejaVuSans-112"/>
     <use transform="translate(244.775391 0.125)" xlink:href="#DejaVuSans-117"/>
     <use transform="translate(308.154297 0.125)" xlink:href="#DejaVuSans-116"/>
     <use transform="translate(347.363281 0.125)" xlink:href="#DejaVuSans-32"/>
     <use transform="translate(379.150391 0.125)" xlink:href="#DejaVuSans-40"/>
     <use transform="translate(418.164062 0.125)" xlink:href="#DejaVuSans-Oblique-70"/>
     <use transform="translate(475.683594 0.125)" xlink:href="#DejaVuSans-Oblique-120"/>
     <use transform="translate(534.863281 0.125)" xlink:href="#DejaVuSans-44"/>
     <use transform="translate(586.132812 0.125)" xlink:href="#DejaVuSans-Oblique-67"/>
     <use transform="translate(655.957031 0.125)" xlink:href="#DejaVuSans-Oblique-120"/>
     <use transform="translate(715.136719 0.125)" xlink:href="#DejaVuSans-41"/>
    </g>
   </g>
  </g>
  <g id="axes_4">
   <g id="patch_17">
    <path d="M 320.425 296.12 
L 565.2 296.12 
L 565.2 184.92 
L 320.425 184.92 
z
" style="fill:none;"/>
   </g>
   <g id="matplotlib.axis_7">
    <g id="xtick_19">
     <g id="line2d_42">
      <g>
       <use style="stroke:#000000;stroke-width:0.8;" x="331.551136" xlink:href="#meca4e8e5c9" y="296.12"/>
      </g>
     </g>
     <g id="text_38">
      <!-- 0 -->
      <g transform="translate(328.369886 310.718437)scale(0.1 -0.1)">
       <use xlink:href="#DejaVuSans-48"/>
      </g>
     </g>
    </g>
    <g id="xtick_20">
     <g id="line2d_43">
      <g>
       <use style="stroke:#000000;stroke-width:0.8;" x="376.055682" xlink:href="#meca4e8e5c9" y="296.12"/>
      </g>
     </g>
     <g id="text_39">
      <!-- 2 -->
      <g transform="translate(372.874432 310.718437)scale(0.1 -0.1)">
       <use xlink:href="#DejaVuSans-50"/>
      </g>
     </g>
    </g>
    <g id="xtick_21">
     <g id="line2d_44">
      <g>
       <use style="stroke:#000000;stroke-width:0.8;" x="420.560227" xlink:href="#meca4e8e5c9" y="296.12"/>
      </g>
     </g>
     <g id="text_40">
      <!-- 4 -->
      <g transform="translate(417.378977 310.718437)scale(0.1 -0.1)">
       <use xlink:href="#DejaVuSans-52"/>
      </g>
     </g>
    </g>
    <g id="xtick_22">
     <g id="line2d_45">
      <g>
       <use style="stroke:#000000;stroke-width:0.8;" x="465.064773" xlink:href="#meca4e8e5c9" y="296.12"/>
      </g>
     </g>
     <g id="text_41">
      <!-- 6 -->
      <g transform="translate(461.883523 310.718437)scale(0.1 -0.1)">
       <use xlink:href="#DejaVuSans-54"/>
      </g>
     </g>
    </g>
    <g id="xtick_23">
     <g id="line2d_46">
      <g>
       <use style="stroke:#000000;stroke-width:0.8;" x="509.569318" xlink:href="#meca4e8e5c9" y="296.12"/>
      </g>
     </g>
     <g id="text_42">
      <!-- 8 -->
      <g transform="translate(506.388068 310.718437)scale(0.1 -0.1)">
       <use xlink:href="#DejaVuSans-56"/>
      </g>
     </g>
    </g>
    <g id="xtick_24">
     <g id="line2d_47">
      <g>
       <use style="stroke:#000000;stroke-width:0.8;" x="554.073864" xlink:href="#meca4e8e5c9" y="296.12"/>
      </g>
     </g>
     <g id="text_43">
      <!-- 10 -->
      <g transform="translate(547.711364 310.718437)scale(0.1 -0.1)">
       <use xlink:href="#DejaVuSans-49"/>
       <use x="63.623047" xlink:href="#DejaVuSans-48"/>
      </g>
     </g>
    </g>
   </g>
   <g id="matplotlib.axis_8">
    <g id="ytick_16">
     <g id="line2d_48">
      <g>
       <use style="stroke:#000000;stroke-width:0.8;" x="320.425" xlink:href="#m9cc193a9e2" y="291.065455"/>
      </g>
     </g>
     <g id="text_44">
      <!-- 2.0 -->
      <defs>
       <path d="M 10.59375 35.5 
L 73.1875 35.5 
L 73.1875 27.203125 
L 10.59375 27.203125 
z
" id="DejaVuSans-8722"/>
      </defs>
      <g transform="translate(289.142187 294.864673)scale(0.1 -0.1)">
       <use xlink:href="#DejaVuSans-8722"/>
       <use x="83.789062" xlink:href="#DejaVuSans-50"/>
       <use x="147.412109" xlink:href="#DejaVuSans-46"/>
       <use x="179.199219" xlink:href="#DejaVuSans-48"/>
      </g>
     </g>
    </g>
    <g id="ytick_17">
     <g id="line2d_49">
      <g>
       <use style="stroke:#000000;stroke-width:0.8;" x="320.425" xlink:href="#m9cc193a9e2" y="265.792727"/>
      </g>
     </g>
     <g id="text_45">
      <!-- 1.5 -->
      <g transform="translate(289.142187 269.591946)scale(0.1 -0.1)">
       <use xlink:href="#DejaVuSans-8722"/>
       <use x="83.789062" xlink:href="#DejaVuSans-49"/>
       <use x="147.412109" xlink:href="#DejaVuSans-46"/>
       <use x="179.199219" xlink:href="#DejaVuSans-53"/>
      </g>
     </g>
    </g>
    <g id="ytick_18">
     <g id="line2d_50">
      <g>
       <use style="stroke:#000000;stroke-width:0.8;" x="320.425" xlink:href="#m9cc193a9e2" y="240.52"/>
      </g>
     </g>
     <g id="text_46">
      <!-- 1.0 -->
      <g transform="translate(289.142187 244.319219)scale(0.1 -0.1)">
       <use xlink:href="#DejaVuSans-8722"/>
       <use x="83.789062" xlink:href="#DejaVuSans-49"/>
       <use x="147.412109" xlink:href="#DejaVuSans-46"/>
       <use x="179.199219" xlink:href="#DejaVuSans-48"/>
      </g>
     </g>
    </g>
    <g id="ytick_19">
     <g id="line2d_51">
      <g>
       <use style="stroke:#000000;stroke-width:0.8;" x="320.425" xlink:href="#m9cc193a9e2" y="215.247273"/>
      </g>
     </g>
     <g id="text_47">
      <!-- 0.5 -->
      <g transform="translate(289.142187 219.046491)scale(0.1 -0.1)">
       <use xlink:href="#DejaVuSans-8722"/>
       <use x="83.789062" xlink:href="#DejaVuSans-48"/>
       <use x="147.412109" xlink:href="#DejaVuSans-46"/>
       <use x="179.199219" xlink:href="#DejaVuSans-53"/>
      </g>
     </g>
    </g>
    <g id="ytick_20">
     <g id="line2d_52">
      <g>
       <use style="stroke:#000000;stroke-width:0.8;" x="320.425" xlink:href="#m9cc193a9e2" y="189.974545"/>
      </g>
     </g>
     <g id="text_48">
      <!-- 0.0 -->
      <g transform="translate(297.521875 193.773764)scale(0.1 -0.1)">
       <use xlink:href="#DejaVuSans-48"/>
       <use x="63.623047" xlink:href="#DejaVuSans-46"/>
       <use x="95.410156" xlink:href="#DejaVuSans-48"/>
      </g>
     </g>
    </g>
   </g>
   <g id="line2d_53">
    <path clip-path="url(#p565d57cfa3)" d="M 331.551136 189.974545 
L 333.776364 189.974545 
L 336.001591 189.974545 
L 338.226818 189.974545 
L 340.452045 189.974545 
L 342.677273 189.974545 
L 344.9025 189.974545 
L 347.127727 189.974545 
L 349.352955 189.974545 
L 351.578182 189.974545 
L 353.803409 189.974545 
L 356.028636 189.974545 
L 358.253864 189.974545 
L 360.479091 189.974545 
L 362.704318 189.974545 
L 364.929545 189.974545 
L 367.154773 189.974545 
L 369.38 189.974545 
L 371.605227 189.974545 
L 373.830455 189.974545 
L 376.055682 189.974545 
L 378.280909 189.974545 
L 380.506136 189.974545 
L 382.731364 189.974545 
L 384.956591 189.974545 
L 387.181818 189.974545 
L 389.407045 189.974545 
L 391.632273 189.974545 
L 393.8575 189.974545 
L 396.082727 189.974545 
L 398.307955 189.974545 
L 400.533182 189.974545 
L 402.758409 189.974545 
L 404.983636 189.974545 
L 407.208864 189.974545 
L 409.434091 189.974545 
L 411.659318 189.974545 
L 413.884545 189.974545 
L 416.109773 189.974545 
L 418.335 189.974545 
L 420.560227 189.974545 
L 422.785455 189.974545 
L 425.010682 189.974545 
L 427.235909 189.974545 
L 429.461136 189.974545 
L 431.686364 189.974545 
L 433.911591 189.974545 
L 436.136818 189.974545 
L 438.362045 189.974545 
L 440.587273 189.974545 
L 442.8125 189.974545 
L 445.037727 189.974545 
L 447.262955 189.974545 
L 449.488182 189.974545 
L 451.713409 189.974545 
L 453.938636 189.974545 
L 456.163864 189.974545 
L 458.389091 189.974545 
L 460.614318 189.974545 
L 462.839545 189.974545 
L 465.064773 189.974545 
L 467.29 189.974545 
L 469.515227 189.974545 
L 471.740455 189.974545 
L 473.965682 189.974545 
L 476.190909 189.974545 
L 478.416136 189.974545 
L 480.641364 189.974545 
L 482.866591 189.974545 
L 485.091818 189.974545 
L 487.317045 189.974545 
L 489.542273 189.974545 
L 491.7675 189.974545 
L 493.992727 189.974545 
L 496.217955 189.974545 
L 498.443182 189.974545 
L 500.668409 189.974545 
L 502.893636 189.974545 
L 505.118864 189.974545 
L 507.344091 189.974545 
L 509.569318 189.974545 
L 511.794545 189.974545 
L 514.019773 189.974545 
L 516.245 189.974545 
L 518.470227 189.974545 
L 520.695455 189.974545 
L 522.920682 189.974545 
L 525.145909 189.974545 
L 527.371136 189.974545 
L 529.596364 189.974545 
L 531.821591 189.974545 
L 534.046818 189.974545 
L 536.272045 189.974545 
L 538.497273 189.974545 
L 540.7225 189.974545 
L 542.947727 189.974545 
L 545.172955 189.974545 
L 547.398182 189.974545 
L 549.623409 189.974545 
L 551.848636 189.974545 
L 554.073864 189.974545 
" style="fill:none;stroke:#0072b2;stroke-linecap:square;stroke-width:1.5;"/>
   </g>
   <g id="line2d_54">
    <path clip-path="url(#p565d57cfa3)" d="M 331.551136 189.974545 
L 333.776364 189.974545 
L 336.001591 189.974545 
L 338.226818 189.974545 
L 340.452045 189.974545 
L 342.677273 189.974545 
L 344.9025 189.974545 
L 347.127727 189.974545 
L 349.352955 189.974545 
L 351.578182 189.974545 
L 353.803409 189.974545 
L 356.028636 189.974545 
L 358.253864 189.974545 
L 360.479091 189.974545 
L 362.704318 189.974545 
L 364.929545 189.974545 
L 367.154773 189.974545 
L 369.38 189.974546 
L 371.605227 189.974546 
L 373.830455 189.974546 
L 376.055682 189.974546 
L 378.280909 189.974546 
L 380.506136 189.974546 
L 382.731364 189.974546 
L 384.956591 189.974546 
L 387.181818 189.974546 
L 389.407045 189.974546 
L 391.632273 189.974546 
L 393.8575 189.974546 
L 396.082727 189.974546 
L 398.307955 189.974547 
L 400.533182 189.974547 
L 402.758409 189.974548 
L 404.983636 189.974548 
L 407.208864 189.974549 
L 409.434091 189.97455 
L 411.659318 189.974551 
L 413.884545 189.974553 
L 416.109773 189.974555 
L 418.335 189.974558 
L 420.560227 189.974561 
L 422.785455 189.974566 
L 425.010682 189.974571 
L 427.235909 189.974579 
L 429.461136 189.974589 
L 431.686364 189.974601 
L 433.911591 189.974617 
L 436.136818 189.974638 
L 438.362045 189.974664 
L 440.587273 189.974699 
L 442.8125 189.974743 
L 445.037727 189.9748 
L 447.262955 189.974873 
L 449.488182 189.974967 
L 451.713409 189.975088 
L 453.938636 189.975245 
L 456.163864 189.975446 
L 458.389091 189.975705 
L 460.614318 189.97604 
L 462.839545 189.97647 
L 465.064773 189.977024 
L 467.29 189.977738 
L 469.515227 189.978658 
L 471.740455 189.979842 
L 473.965682 189.981367 
L 476.190909 189.983332 
L 478.416136 189.985863 
L 480.641364 189.989122 
L 482.866591 189.99332 
L 485.091818 189.998727 
L 487.317045 190.005692 
L 489.542273 190.014662 
L 491.7675 190.026216 
L 493.992727 190.041098 
L 496.217955 190.060265 
L 498.443182 190.084953 
L 500.668409 190.116752 
L 502.893636 190.157709 
L 505.118864 190.210464 
L 507.344091 190.278413 
L 509.569318 190.365937 
L 511.794545 190.478675 
L 514.019773 190.623897 
L 516.245 190.810973 
L 518.470227 191.051989 
L 520.695455 191.362538 
L 522.920682 191.762771 
L 525.145909 192.278761 
L 527.371136 192.944345 
L 529.596364 193.803611 
L 531.821591 194.914369 
L 534.046818 196.353175 
L 536.272045 198.22291 
L 538.497273 200.664922 
L 540.7225 203.879781 
L 542.947727 208.165431 
L 545.172955 213.99338 
L 547.398182 222.175993 
L 549.623409 234.281286 
L 551.848636 253.851155 
L 554.073864 291.065455 
" style="fill:none;stroke:#009e73;stroke-linecap:square;stroke-width:1.5;"/>
   </g>
   <g id="patch_18">
    <path d="M 320.425 296.12 
L 320.425 184.92 
" style="fill:none;stroke:#000000;stroke-linecap:square;stroke-linejoin:miter;stroke-width:0.8;"/>
   </g>
   <g id="patch_19">
    <path d="M 565.2 296.12 
L 565.2 184.92 
" style="fill:none;stroke:#000000;stroke-linecap:square;stroke-linejoin:miter;stroke-width:0.8;"/>
   </g>
   <g id="patch_20">
    <path d="M 320.425 296.12 
L 565.2 296.12 
" style="fill:none;stroke:#000000;stroke-linecap:square;stroke-linejoin:miter;stroke-width:0.8;"/>
   </g>
   <g id="patch_21">
    <path d="M 320.425 184.92 
L 565.2 184.92 
" style="fill:none;stroke:#000000;stroke-linecap:square;stroke-linejoin:miter;stroke-width:0.8;"/>
   </g>
   <g id="text_49">
    <!-- Feedforward control -->
    <defs>
     <path d="M 9.8125 72.90625 
L 51.703125 72.90625 
L 51.703125 64.59375 
L 19.671875 64.59375 
L 19.671875 43.109375 
L 48.578125 43.109375 
L 48.578125 34.8125 
L 19.671875 34.8125 
L 19.671875 0 
L 9.8125 0 
z
" id="DejaVuSans-70"/>
     <path d="M 45.40625 46.390625 
L 45.40625 75.984375 
L 54.390625 75.984375 
L 54.390625 0 
L 45.40625 0 
L 45.40625 8.203125 
Q 42.578125 3.328125 38.25 0.953125 
Q 33.9375 -1.421875 27.875 -1.421875 
Q 17.96875 -1.421875 11.734375 6.484375 
Q 5.515625 14.40625 5.515625 27.296875 
Q 5.515625 40.1875 11.734375 48.09375 
Q 17.96875 56 27.875 56 
Q 33.9375 56 38.25 53.625 
Q 42.578125 51.265625 45.40625 46.390625 
z
M 14.796875 27.296875 
Q 14.796875 17.390625 18.875 11.75 
Q 22.953125 6.109375 30.078125 6.109375 
Q 37.203125 6.109375 41.296875 11.75 
Q 45.40625 17.390625 45.40625 27.296875 
Q 45.40625 37.203125 41.296875 42.84375 
Q 37.203125 48.484375 30.078125 48.484375 
Q 22.953125 48.484375 18.875 42.84375 
Q 14.796875 37.203125 14.796875 27.296875 
z
" id="DejaVuSans-100"/>
     <path d="M 41.109375 46.296875 
Q 39.59375 47.171875 37.8125 47.578125 
Q 36.03125 48 33.890625 48 
Q 26.265625 48 22.1875 43.046875 
Q 18.109375 38.09375 18.109375 28.8125 
L 18.109375 0 
L 9.078125 0 
L 9.078125 54.6875 
L 18.109375 54.6875 
L 18.109375 46.1875 
Q 20.953125 51.171875 25.484375 53.578125 
Q 30.03125 56 36.53125 56 
Q 37.453125 56 38.578125 55.875 
Q 39.703125 55.765625 41.0625 55.515625 
z
" id="DejaVuSans-114"/>
     <path d="M 4.203125 54.6875 
L 13.1875 54.6875 
L 24.421875 12.015625 
L 35.59375 54.6875 
L 46.1875 54.6875 
L 57.421875 12.015625 
L 68.609375 54.6875 
L 77.59375 54.6875 
L 63.28125 0 
L 52.6875 0 
L 40.921875 44.828125 
L 29.109375 0 
L 18.5 0 
z
" id="DejaVuSans-119"/>
    </defs>
    <g transform="translate(382.230312 178.92)scale(0.12 -0.12)">
     <use xlink:href="#DejaVuSans-70"/>
     <use x="57.441406" xlink:href="#DejaVuSans-101"/>
     <use x="118.964844" xlink:href="#DejaVuSans-101"/>
     <use x="180.488281" xlink:href="#DejaVuSans-100"/>
     <use x="243.964844" xlink:href="#DejaVuSans-102"/>
     <use x="279.169922" xlink:href="#DejaVuSans-111"/>
     <use x="340.351562" xlink:href="#DejaVuSans-114"/>
     <use x="381.464844" xlink:href="#DejaVuSans-119"/>
     <use x="463.251953" xlink:href="#DejaVuSans-97"/>
     <use x="524.53125" xlink:href="#DejaVuSans-114"/>
     <use x="565.628906" xlink:href="#DejaVuSans-100"/>
     <use x="629.105469" xlink:href="#DejaVuSans-32"/>
     <use x="660.892578" xlink:href="#DejaVuSans-99"/>
     <use x="715.873047" xlink:href="#DejaVuSans-111"/>
     <use x="777.054688" xlink:href="#DejaVuSans-110"/>
     <use x="840.433594" xlink:href="#DejaVuSans-116"/>
     <use x="879.642578" xlink:href="#DejaVuSans-114"/>
     <use x="920.724609" xlink:href="#DejaVuSans-111"/>
     <use x="981.90625" xlink:href="#DejaVuSans-108"/>
    </g>
   </g>
  </g>
 </g>
 <defs>
  <clipPath id="pe9f643d7d6">
   <rect height="111.2" width="244.775" x="33.64" y="28.32"/>
  </clipPath>
  <clipPath id="pa5053f4e33">
   <rect height="111.2" width="244.775" x="320.425" y="28.32"/>
  </clipPath>
  <clipPath id="pc9d83a0c97">
   <rect height="111.2" width="244.775" x="33.64" y="184.92"/>
  </clipPath>
  <clipPath id="p565d57cfa3">
   <rect height="111.2" width="244.775" x="320.425" y="184.92"/>
  </clipPath>
 </defs>
</svg>
